<?xml version="1.0" encoding="utf-8"?>
<!-- Generator: Adobe Illustrator 23.0.3, SVG Export Plug-In . SVG Version: 6.00 Build 0)  -->
<svg version="1.1" id="Layer_1" xmlns="http://www.w3.org/2000/svg" xmlns:xlink="http://www.w3.org/1999/xlink" x="0px" y="0px"
	 viewBox="0 0 542.4 441.7" style="enable-background:new 0 0 542.4 441.7;" xml:space="preserve">
<style type="text/css">
	.st0{stroke:#000000;stroke-width:0.5;stroke-miterlimit:10;}
	.st1{fill:none;stroke:#000000;stroke-width:0.5;stroke-miterlimit:10;}
	.st2{fill:#FFFFFF;}
	.st3{fill:none;stroke:#000000;stroke-miterlimit:10;}
</style>
<g id="b_ackground">
	<g>
		<g>
			<g>
				<path class="st0" d="M296.9,322.2c0,0.5-56.7,0.8-126.7,0.8s-126.7-0.4-126.7-0.8s56.7-0.8,126.7-0.8S296.9,321.7,296.9,322.2z"
					/>
			</g>
		</g>
	</g>
	<g>
		<g>
			<g>
				<ellipse class="st0" cx="381.4" cy="340.4" rx="114.6" ry="0.8"/>
			</g>
		</g>
	</g>
	<g>
		<g>
			<g>
				<path class="st0" d="M63.3,387.7c-0.1,0-0.3-0.4-0.7-1.3c-0.4-0.9-1-2.1-1.8-3.8c-1.5-3.3-3.6-8.1-6.3-14
					c-2.6-5.9-5.7-13-9.2-21c-0.4-1-0.8-2-1.4-2.9c-0.5-0.9-1.2-1.7-2-2c-0.7-0.3-1.6,0-2,0.7c-0.5,0.8-0.6,1.9-0.5,2.9
					c0.4,4.5,1.8,9.3,4.1,13.6l-1.5,0.7c-0.6-1.5-1.5-2.9-2.5-4.2c-0.6-0.8-1.3-1.5-2-2.2c-0.2-0.2-0.4-0.3-0.6-0.5
					c-0.1-0.1-0.2-0.2-0.3-0.2l-0.2-0.2c-0.1-0.1-0.2-0.1-0.3-0.2c0,0.1,0,0.2-0.1,0.3v0.2l-0.1,0.5c-0.1,0.7-0.1,1.4-0.1,2.1
					c0.1,1.4,0.3,2.8,0.6,4.1c0.7,2.7,1.8,5.3,2.8,7.9c2.1,5.1,4.5,9.7,6.9,14l-1.2,0.8c-0.8-1.1-1.7-2.1-2.7-3
					c-0.5-0.4-1-0.8-1.5-1.2c-0.5-0.3-1.1-0.7-1.5-0.9c-0.4-0.1-0.7,0-0.8,0.4c-0.2,0.4-0.2,1-0.1,1.5c0.2,1.1,0.6,2.3,1,3.3
					c1.5,4.3,3.4,7.9,5.2,10.6c1.8,2.8,3.6,4.7,4.7,6c1.2,1.3,1.9,2,1.8,2c0,0-0.8-0.5-2.1-1.7c-1.3-1.2-3.2-3.1-5.1-5.9
					c-2-2.7-4.1-6.3-5.6-10.7c-0.4-1.1-0.8-2.2-1.1-3.5c-0.1-0.7-0.2-1.4,0.1-2.2c0.2-0.4,0.5-0.8,1-1c0.4-0.2,1-0.2,1.4-0.1
					c0.8,0.2,1.3,0.6,1.9,1s1.1,0.8,1.7,1.3c1.1,0.9,2.1,2,2.9,3.2l-1.2,0.8c-2.5-4.3-4.9-9-7.1-14.1c-1.1-2.6-2.2-5.2-2.9-8.1
					c-0.4-1.4-0.6-2.9-0.7-4.5c0-0.8,0-1.6,0.1-2.3c0-0.2,0-0.3,0.1-0.6l0.2-0.9c0.1-0.6,0.3-1.2,0.5-1.9c0.7,0.5,1.5,1,2.2,1.6
					l0.4,0.3c0.1,0.1,0.2,0.2,0.3,0.3c0.2,0.2,0.4,0.4,0.6,0.5c0.8,0.7,1.5,1.5,2.2,2.4c1.1,1.4,2,2.9,2.7,4.5l-1.5,0.7
					c-2.4-4.6-3.8-9.4-4.2-14.3c0-1.3,0-2.6,0.8-3.8c0.4-0.6,1-1.2,1.7-1.4c0.7-0.2,1.5-0.2,2.2,0.1c1.3,0.6,2.1,1.7,2.7,2.6
					c0.3,0.5,0.6,1,0.8,1.6c0.2,0.5,0.4,1,0.6,1.5c3.3,8,6.3,15.1,8.9,21.1c2.5,6,4.5,10.9,5.8,14.2c0.7,1.7,1.2,3,1.5,3.9
					C63.2,387.2,63.3,387.7,63.3,387.7z"/>
			</g>
		</g>
	</g>
	<g>
		<g>
			<g>
				<path class="st0" d="M73.2,389.8c-0.5,0.1-2.2-9.7-8.2-20.3c-0.7-1.3-1.5-2.6-2.3-3.8c-0.4-0.6-0.8-1.2-1.1-1.7
					c-0.4-0.5-0.8-0.9-1.3-1.1c-0.9-0.5-1.4,0-1.7,1.1c-0.3,1.1-0.5,2.1-0.6,3.1c-0.3,3.9,0.4,6.3,0.1,6.4c-0.1,0-0.4-0.5-0.7-1.6
					c-0.3-1.1-0.6-2.7-0.6-4.8c0-1,0.1-2.2,0.4-3.4c0.2-0.6,0.4-1.4,1.1-2c0.4-0.3,0.8-0.4,1.3-0.4s0.9,0.1,1.3,0.3
					c0.7,0.4,1.3,0.9,1.8,1.5s0.8,1.2,1.3,1.8c0.8,1.2,1.6,2.5,2.3,3.8c3,5.4,4.9,10.7,5.9,14.6C73.3,387.2,73.4,389.7,73.2,389.8z"
					/>
			</g>
		</g>
	</g>
	<g>
		<g>
			<g>
				<path class="st0" d="M85.7,384.9c-0.2,0-0.7-1.2-1.3-3.3c-0.3-1.1-0.6-2.3-1-3.7c-0.2-0.7-0.3-1.4-0.5-2.2
					c-0.2-0.8-0.3-1.6-0.5-2.3c-0.2-0.7-0.5-1.4-0.9-1.9s-0.8-0.7-1.3-0.7s-0.9,0.3-1.3,0.7c-0.3,0.4-0.6,0.8-0.7,1.3
					c-0.2,0.9-0.1,1.8-0.1,2.4c0.1,0.6,0.1,1-0.1,1c-0.1,0-0.3-0.3-0.6-0.8c-0.2-0.6-0.6-1.5-0.5-2.7c0.1-0.6,0.3-1.3,0.7-1.9
					c0.5-0.6,1.2-1.2,2.2-1.3c1-0.1,2,0.4,2.6,1.2c0.6,0.7,1,1.6,1.2,2.4c0.3,0.9,0.4,1.7,0.5,2.4c0.1,0.8,0.3,1.5,0.4,2.2
					c0.3,1.4,0.5,2.7,0.6,3.8C85.8,383.5,85.9,384.9,85.7,384.9z"/>
			</g>
		</g>
	</g>
	<g>
		<g>
			<g>
				<path class="st0" d="M365,426.8c0,0.5-48.4,0.8-108.2,0.8s-108.2-0.4-108.2-0.8S197,426,256.8,426S365,426.3,365,426.8z"/>
			</g>
		</g>
	</g>
</g>
<g id="hanger">
	<g>
		<g>
			<g>
				<ellipse class="st0" cx="19.2" cy="231.9" rx="0.8" ry="134.9"/>
			</g>
		</g>
	</g>
	<g>
		<g>
			<g>
				<path class="st0" d="M0.3,393.7c-0.4-0.2,3.3-6.7,8.4-14.4c5.1-7.6,9.7-13.5,10.1-13.2c0.4,0.3-3.7,6.5-8.8,14.1
					C4.9,387.9,0.7,394,0.3,393.7z"/>
			</g>
		</g>
	</g>
	<g>
		<g>
			<g>
				<path class="st0" d="M49,410.1c-0.2,0.1-2-2.1-4.7-5.9c-2.8-3.8-6.5-9-10.6-14.8s-7.8-11.1-10.5-14.9c-2.6-3.8-4.2-6.3-4-6.4
					s2.1,2.1,5,5.7c2.9,3.7,6.7,8.8,10.9,14.6c4.1,5.8,7.7,11.1,10.3,15.1C47.7,407.5,49.2,410,49,410.1z"/>
			</g>
		</g>
	</g>
	<g>
		<g>
			<path class="st1" d="M19.8,88.5"/>
		</g>
	</g>
	<g>
		<g>
			<g>
				<path class="st0" d="M342.6,62.7c0,0-0.3,0.1-0.8,0.2c-0.5,0.1-1.4,0.2-2.4,0.3c-2.1,0.2-5.3,0.6-9.3,1.1
					c-8.1,0.9-19.8,2.1-34.3,3.6c-29,2.9-69,6.8-113.3,10.8S98.1,86,69.1,88.2c-14.5,1.1-26.3,2-34.4,2.6c-4.1,0.3-7.2,0.5-9.4,0.6
					c-1.1,0.1-1.9,0.1-2.4,0.1s-0.8,0-0.8,0s0.3-0.1,0.8-0.1c0.5-0.1,1.4-0.2,2.4-0.3c2.1-0.2,5.3-0.5,9.3-0.9
					c8.1-0.7,19.9-1.8,34.4-3.1c29-2.6,69.1-6.1,113.4-10c44.3-4,84.3-7.7,113.3-10.3c14.5-1.3,26.2-2.3,34.4-3.1
					c4.1-0.3,7.2-0.6,9.3-0.8c1.1-0.1,1.9-0.1,2.4-0.2C342.3,62.6,342.6,62.6,342.6,62.7z"/>
			</g>
		</g>
	</g>
	<g>
		<g>
			<g>
				<ellipse class="st0" cx="340.3" cy="192.1" rx="0.8" ry="129.7"/>
			</g>
		</g>
	</g>
	<g>
		<g>
			<g>
				<path class="st0" d="M309.8,353.3c-0.3-0.3,5.7-7.6,13.8-16c8.1-8.4,15.3-14.7,15.6-14.3c0.3,0.3-6.3,7.1-14.4,15.5
					C316.7,346.7,310.1,353.6,309.8,353.3z"/>
			</g>
		</g>
	</g>
	<g>
		<g>
			<g>
				<path class="st0" d="M364.2,363c-0.4,0.2-6.1-8.6-12.8-19.8s-11.8-20.4-11.4-20.6s6.1,8.6,12.8,19.8
					C359.5,353.5,364.6,362.7,364.2,363z"/>
			</g>
		</g>
	</g>
</g>
<g id="hanger_4">
	<path class="st2" d="M221.7,119c-1.6,2.3-3.7,4.8-6.1,7.3c-4.7,4.8-9.4,8.2-13.3,10.6c1.4-0.5,3.9-1.1,7-0.6c1.6,0.3,3,0.7,3.9,1.2
		c-1.3,2.6-3.1,5.6-5.4,8.8c-1.8,2.4-3.6,4.5-5.3,6.2c0.9-0.1,3.3-0.4,5.8,0.9c2.2,1.1,3.4,2.7,3.9,3.4c-0.4,1.5-0.9,3.1-1.7,4.8
		c-2,4.7-4.8,8.1-7,10.3c2.7-0.8,4.5-0.5,5.6-0.1c1.2,0.4,2.3,1.2,6.9,6.7c2.6,3.1,2.8,3.6,3.9,4c2.5,1.1,5.3,0.2,7.5-0.7
		c5.3-2,5-4.1,8.7-5s7.1,0.4,11.3,2.1c4.8,1.9,5.1,3.2,8.2,3.5c3.7,0.3,4.4-1.5,8.4-1.3c3.4,0.2,4,1.5,8.1,2.5
		c1.3,0.3,6.1,1.6,10.8,0.4c6.6-1.7,10.2-7.7,11.3-9.8c-1-0.2-2.9-0.7-4.7-2.3c-3.2-3-3-7.3-2.9-7.9c1.4-1,2.9-2,4.3-3
		c-0.8-0.4-2.4-1.4-3.7-3.3c-1.2-1.8-1.5-3.6-1.6-4.5c0.8-0.1,2.2-0.2,3.7-1.1c1.1-0.6,1.8-1.4,2.3-1.9c-1.2-1-3-2.5-5.1-4.7
		c-1.7-1.8-6.7-7.3-10.5-16.1c-0.8-1.8-1.8-4.3-2.7-7.6c-1,0.6-2.5,1.4-4.4,2.2c-12.7,5.3-25.2,2.3-32.1,0.6
		C233.2,123.8,227.8,122.1,221.7,119z"/>
	<g>
		<g>
			<g>
				<path class="st0" d="M249.7,76.5c-0.2-0.2,1-1.1,2.3-3.1c0.6-1,1.3-2.2,1.7-3.6c0.4-1.4,0.7-3.1-0.2-4.2c-0.4-0.5-1.1-0.9-1.8-1
					c-0.7-0.2-1.4-0.1-2.1,0.1c-1.4,0.3-2.6,1.1-3.6,1.7c-1,0.6-1.6,1.2-1.8,1.7c-0.3,0.5-0.2,0.9-0.3,0.9c-0.1,0-0.4-0.3-0.3-1.1
					s0.8-1.7,1.8-2.5c1-0.7,2.1-1.7,3.8-2.2c0.8-0.3,1.8-0.4,2.8-0.2s2,0.6,2.7,1.6c0.7,0.9,0.9,2.1,0.9,3c-0.1,1-0.3,1.9-0.6,2.6
					c-0.6,1.6-1.4,2.8-2.2,3.8C251.3,76.1,249.8,76.7,249.7,76.5z"/>
			</g>
		</g>
	</g>
	<g>
		<g>
			<g>
				<path class="st0" d="M282.8,115c0,0.1-1.7-0.1-4.8-0.4c-3.1-0.3-7.5-0.6-13-0.7c-5.5-0.1-12-0.1-19.3-0.1
					c-7.3-0.1-15.4-0.3-23.7-1.6c-2.1-0.3-4.1-0.8-6.2-1.2c-1-0.3-2-0.5-3.1-0.8c-0.9-0.2-1.7-0.5-2.5-0.7h-0.1l0.1-0.1l0.1-0.1
					l0.2-0.3l0.4-0.5l0.8-1c0.3-0.4,0.7-0.8,1-1.3c0.3-0.4,0.6-0.7,1-1.1c0.6-0.7,1.3-1.5,1.9-2.2c1.3-1.4,2.6-2.8,3.8-4.1
					c5.1-5.2,10.2-9.5,14.6-12.9s8.2-5.8,10.8-7.4c1.3-0.8,2.4-1.4,3.1-1.8c0.7-0.4,1.1-0.6,1.1-0.5c0.1,0.1-1.4,1-3.9,2.8
					c-2.5,1.7-6.2,4.3-10.4,7.8c-4.3,3.4-9.2,7.8-14.2,13c-1.2,1.3-2.5,2.7-3.8,4.1c-0.6,0.7-1.3,1.4-1.9,2.2
					c-0.3,0.4-0.6,0.7-0.9,1.1l-0.8,1c-0.1,0.1-0.2,0.2-0.2,0.3l0.4,0.1c0.9,0.2,1.9,0.5,2.8,0.8c2,0.4,4,0.9,6.1,1.2
					c8.2,1.4,16.2,1.6,23.5,1.8c7.3,0.1,13.8,0.2,19.4,0.5c5.5,0.3,10,0.8,13,1.3C281.2,114.6,282.8,114.9,282.8,115z"/>
			</g>
		</g>
	</g>
	<g>
		<g>
			<g>
				<path class="st0" d="M283.8,109.5c-0.2,0.2-2.2-1.5-5.3-4.4c-3.1-2.9-7.3-7-11.8-11.7s-8.5-9-11.3-12.2s-4.4-5.3-4.2-5.4
					c0.2-0.2,2.1,1.7,5.1,4.7s7.1,7.2,11.6,11.9s8.6,8.9,11.5,12C282.3,107.4,284,109.3,283.8,109.5z"/>
			</g>
		</g>
	</g>
	<g>
		<g>
			<g>
				<path class="st0" d="M221.7,119c-0.4,0-0.9-2.3-0.6-5.1c0.3-2.8,1.1-5,1.6-4.9c0.4,0.1,0.3,2.3,0.1,5
					C222.5,116.7,222.2,119,221.7,119z"/>
			</g>
		</g>
	</g>
	<g>
		<g>
			<g>
				<path class="st0" d="M274.8,122.4c0.1,0.2-2.9,1.4-7.9,2.4c-5,1.1-12.1,2-19.9,1.8c-3.9-0.1-7.6-0.5-11-1.1s-6.4-1.4-8.7-2.6
					c-2.4-1.1-4.1-2.4-5-3.5c-1-1.1-1.4-1.8-1.3-1.8c0.1-0.1,0.6,0.5,1.7,1.4c1.1,0.9,2.8,2,5.1,2.9c4.6,1.9,11.6,2.8,19.3,3
					c7.7,0.2,14.7-0.5,19.6-1.3C271.7,122.9,274.8,122.1,274.8,122.4z"/>
			</g>
		</g>
	</g>
	<g>
		<g>
			<g>
				<path class="st0" d="M274.9,121.9c-0.4,0.1-1.2-1.9-1.3-4.6c-0.1-2.6,0.6-4.7,1-4.6c0.5,0.1,0.5,2.1,0.6,4.6
					C275.3,119.8,275.3,121.8,274.9,121.9z"/>
			</g>
		</g>
	</g>
	<g>
		<g>
			<g>
				<path class="st0" d="M292.2,149.9c0,0-0.2,0.4-0.8,1c-0.6,0.6-1.6,1.5-3,2.3s-3.3,1.7-5.6,2.1c-2.3,0.5-5.1,0.5-8-0.4
					s-5.7-2.6-8.8-3.6c-1.6-0.5-3.2-0.8-4.9-0.4c-1.6,0.3-3.2,1.3-4.7,2.4c-1.6,1-3.3,2.3-5.6,2.7c-1.1,0.2-2.4,0-3.4-0.5
					c-1.1-0.5-1.9-1.3-2.7-2.1c-1.5-1.6-2.6-3.4-4.2-4.6c-1.5-1.2-3.6-1.6-5.7-1.4c-1.7,0.1-3.4,0.5-5.1,1c-1.7,0.4-3.3,1-5.2,1.3
					c-0.9,0.1-1.9,0.1-2.8-0.1c-1-0.2-1.9-0.8-2.5-1.5c-1.4-1.4-1.8-3.2-2.3-4.7s-1-3-1.9-4c-0.9-1.1-2.1-1.8-3.4-2.1
					c-1.3-0.4-2.7-0.5-4.1-0.5c-0.5,0-1.8,0.1-3,0.2c-1.2,0.1-2.3,0.3-3.4,0.4c2.1-1.7,4.1-3.4,6.1-5c1.4-1.1,2.7-2.2,3.8-3.3
					c2.4-2.1,4.4-4,6.1-5.5c3.3-3.1,5.1-4.9,5.2-4.8c0,0-0.3,0.6-1.1,1.5s-2,2.2-3.6,3.9c-1.6,1.6-3.5,3.6-5.9,5.8
					c-1.2,1.1-2.4,2.2-3.8,3.4c-0.6,0.5-1.2,1-1.8,1.5c-0.1,0.1-0.3,0.2-0.4,0.4l-0.2,0.2l-0.1,0.1c0,0-0.1,0.1,0,0.1
					c0.3,0,0.5-0.1,0.8-0.1h0.4h0.1h0.2h0.5c1.5,0,3,0,4.5,0.4s3.1,1.2,4.2,2.6c1.1,1.3,1.7,3,2.2,4.5s1,3.1,2,4.1
					c0.5,0.5,1.1,0.9,1.8,1c0.7,0.2,1.5,0.2,2.2,0.1c3.2-0.5,6.6-2,10.3-2.3c1.2-0.1,2.4,0,3.5,0.2c1.2,0.3,2.3,0.8,3.2,1.5
					c1.9,1.5,3,3.4,4.4,4.8c0.7,0.7,1.4,1.4,2.2,1.7c0.8,0.4,1.7,0.5,2.5,0.4c1.7-0.3,3.4-1.4,5-2.4s3.3-2.2,5.3-2.5
					c2-0.4,3.9,0,5.6,0.6c3.4,1.2,6.1,2.9,8.7,3.8c2.7,0.9,5.3,1,7.5,0.6c2.2-0.3,4.1-1.1,5.5-1.8
					C290.9,151.2,292.1,149.7,292.2,149.9z"/>
			</g>
		</g>
	</g>
	<g>
		<g>
			<g>
				<path class="st0" d="M288.9,148c-0.1,0.2-1.6-0.9-3.5-2.9c-2-2-4.4-5-6.6-8.7s-3.6-7.3-4.4-10s-1-4.4-0.8-4.5
					c0.5-0.1,2.4,6.5,6.7,13.6C284.4,142.8,289.3,147.7,288.9,148z"/>
			</g>
		</g>
	</g>
	<g>
		<g>
			<g>
				<path class="st0" d="M289.8,160.6c0,0,0,0.4-0.3,1.2c-0.3,0.7-1,1.8-2.1,2.8c-1.2,1-2.9,2-5,2.6s-4.7,0.6-7.4,0.2
					c-2.7-0.4-5.6-1.2-8.6-2c-3-0.7-6.4-1.2-9.7-0.6c-1.7,0.3-3.2,1-4.7,2c-0.7,0.5-1.5,1.1-2.3,1.7c-0.9,0.5-1.9,1-3.1,1
					c-1.1,0.1-2.3-0.2-3.2-0.7c-1-0.5-1.8-1.1-2.6-1.7c-1.6-1.2-3.1-2.4-5-2.9c-1.8-0.5-3.6-0.5-5.5-0.2c-1.8,0.3-3.6,0.7-5.4,1.2
					c-0.9,0.2-1.8,0.5-2.7,0.7s-1.8,0.5-2.8,0.5c-1,0.1-2,0.1-3-0.4c-1-0.4-1.8-1.2-2.2-2.1c-0.9-1.7-1.1-3.5-1.6-4.9
					s-1.3-2.7-2.4-3.7c-1-1-2.3-1.7-3.6-2.1c-0.3-0.1-0.6-0.2-1-0.3l-0.5-0.1h-0.2h-0.4h-0.8c-0.3,0-0.6,0.1-0.9,0.1
					c-0.6,0.1-1.2,0.1-1.8,0.2c3.4-3.6,4.6-4.9,6.1-6.8c1.4-1.8,2.5-3.4,3.4-4.7c1.8-2.7,2.6-4.3,2.7-4.2c0.1,0-0.1,0.5-0.5,1.2
					c-0.4,0.8-0.9,1.9-1.7,3.3c-0.8,1.4-1.9,3.1-3.2,5c-0.7,0.9-1.4,1.9-2.3,2.9c-0.4,0.4-0.7,0.8-1.1,1.3l-0.3,0.3l-0.2,0.2
					c0,0.1-0.1,0.1,0,0.1c0.3-0.1,0.6-0.1,0.9-0.1h0.1h0.3l0.6,0.1c0.4,0.1,0.7,0.2,1.1,0.3c1.5,0.4,2.9,1.2,4.1,2.3
					c1.2,1.1,2.3,2.5,2.8,4.2c0.5,1.6,0.8,3.3,1.5,4.6c0.4,0.6,0.9,1.1,1.5,1.4s1.4,0.3,2.2,0.2c1.6-0.2,3.4-0.8,5.2-1.2
					c1.8-0.5,3.7-1,5.6-1.3c2-0.3,4.1-0.3,6.1,0.2c1.1,0.3,2.1,0.8,3,1.4s1.7,1.2,2.5,1.8c1.6,1.2,3.2,2.2,4.8,2.1
					c1.6,0,3-1.3,4.6-2.4c0.8-0.6,1.7-1.1,2.5-1.4c0.9-0.4,1.8-0.6,2.7-0.8c3.7-0.6,7.2,0,10.3,0.8c3.1,0.8,5.9,1.7,8.5,2.1
					c2.6,0.5,5,0.5,7,0s3.7-1.3,4.8-2.2c1.2-0.9,1.8-1.8,2.2-2.5C289.5,161,289.7,160.6,289.8,160.6z"/>
			</g>
		</g>
	</g>
	<g>
		<g>
			<g>
				<path class="st0" d="M291,161.1c-0.1,0.2-0.7,0.1-1.6-0.3c-0.8-0.4-1.9-1.3-2.7-2.5c-0.8-1.2-1.2-2.5-1.3-3.4
					c-0.1-0.9,0.1-1.5,0.3-1.5c0.5,0,0.9,2,2.3,4.1C289.4,159.5,291.2,160.6,291,161.1z"/>
			</g>
		</g>
	</g>
	<g>
		<g>
			<g>
				<path class="st0" d="M292.2,176.4c0,0-0.2,0.4-0.6,1c-0.5,0.6-1.2,1.5-2.2,2.5s-2.4,2.3-4.2,3.4c-1.8,1.1-4.1,2.2-6.8,2.4
					c-1.4,0.1-2.8-0.1-4.2-0.6c-1.4-0.5-2.8-1.1-4.1-1.8c-1.4-0.6-2.8-1.2-4.3-1.5c-0.7-0.1-1.5-0.1-2.2,0c-0.8,0.1-1.5,0.4-2.4,0.6
					c-0.8,0.3-1.7,0.5-2.7,0.7c-0.5,0-1,0.1-1.4,0.1c-0.5,0-1-0.1-1.4-0.1c-1.9-0.3-3.7-1.1-5.4-1.9c-1.7-0.9-3.4-1.8-5.1-2.6
					c-1.7-0.8-3.5-1.5-5.3-1.5c-1.9-0.1-3.8,0.6-5.5,1.6s-3.3,2.2-5.1,3.2c-1.8,1-3.7,1.8-5.7,2c-1,0.1-2.1,0-3.1-0.3
					s-1.9-0.9-2.6-1.6c-1.4-1.4-2.3-3-3.2-4.4s-1.7-2.8-2.8-3.7c-1.1-0.9-2.5-1.4-3.8-1.7c-0.3-0.1-0.7-0.1-1-0.2
					c-0.4-0.1-0.6-0.1-1.2-0.2c-1.1-0.1-2.1-0.2-3.1-0.3c0.7-0.6,1.4-1.2,2-1.8c0.7-0.7,1-1,1.3-1.4c0.7-0.8,1.3-1.5,1.8-2.3
					c1.1-1.5,1.8-2.9,2.3-4.1c1.1-2.4,1.4-3.8,1.5-3.8c0,0,0,0.4-0.1,1.1s-0.4,1.7-0.8,2.9c-0.5,1.2-1.1,2.7-2.2,4.3
					c-0.5,0.8-1.1,1.6-1.8,2.5c-0.9,1-1.1,1.2-1.5,1.6c0.3,0,0.6,0,1,0.1c0.1,0,0.6,0.1,0.9,0.1c0.4,0,0.7,0.1,1.1,0.2
					c1.5,0.3,3.1,0.8,4.4,1.9c2.7,2.2,3.8,5.8,6.2,8c1.2,1.1,2.8,1.6,4.5,1.5c1.7-0.2,3.4-0.9,5.1-1.9c1.6-1,3.2-2.2,5.1-3.3
					c0.9-0.5,1.9-1,3-1.3c0.5-0.2,1.1-0.3,1.6-0.4c0.6-0.1,1.1-0.1,1.7-0.1c2.2,0.1,4.2,0.9,5.9,1.7c1.8,0.9,3.4,1.8,5.1,2.7
					c1.6,0.8,3.3,1.5,4.9,1.8c0.4,0.1,0.8,0.1,1.2,0.1c0.4,0,0.8,0,1.2-0.1c0.8-0.1,1.6-0.3,2.4-0.6c0.8-0.2,1.7-0.5,2.6-0.6
					s1.8-0.1,2.7,0c1.8,0.3,3.3,1,4.7,1.7c1.4,0.7,2.7,1.3,4,1.8s2.6,0.6,3.8,0.6c2.5-0.1,4.7-1,6.4-2c1.7-1,3.1-2.1,4.2-3.1
					C291.1,177.6,292.1,176.3,292.2,176.4z"/>
			</g>
		</g>
	</g>
	<g>
		<g>
			<g>
				<path class="st0" d="M295.4,174.8c-0.1,0.2-0.9,0.1-2.2-0.4c-1.2-0.5-2.8-1.7-4.2-3.3c-1.3-1.6-2.1-3.4-2.4-4.7
					c-0.3-1.3-0.2-2.2,0-2.2c0.5-0.1,1.2,3,3.6,5.9C292.7,173,295.6,174.3,295.4,174.8z"/>
			</g>
		</g>
	</g>
</g>
<g id="hanger_3">
	<path class="st2" d="M143.5,114.4c-0.2,3.1-0.6,8.5-1.1,15.2c-2.3,35.6-2,59.4-2.2,121.4c0,7.9-0.1,21.4-0.2,38.5
		c1.3,2,3.9,5.1,8,7.3c5.5,2.9,10.8,2.4,14.8,2.1c2.8-0.2,6.8-0.9,11.4-2.8c1-6.8,1.9-13.8,2.7-20.9c1.3-11.6,2.3-22.8,3-33.7
		c0.5,5.5,0.9,11.1,1.4,16.6c1.2,13.8,2.4,27.4,3.6,41.1c1.9,0.9,4.9,2,8.7,2.5c2.5,0.4,12.3,1.7,20.9-4.4c1.8-1.3,4.5-3.6,6.9-7.4
		c0.3-4.1,0.6-10.2,0.8-17.6c1-32.2-1.3-39.5-2.6-85c-0.4-15.9-0.5-28.8-2.6-48.7c-0.7-6.6-1.4-12-1.8-15.5c-7-1.7-12.8-2.9-17-3.7
		c-6.4-1.2-21.2-3.7-40.7-4.7C151.6,114.5,146.7,114.4,143.5,114.4z"/>
	<g>
		<g>
			<g>
				<path class="st0" d="M181.4,85.9c-0.2-0.1,0.3-1.5,1.5-3.6c0.6-1,1.3-2.2,1.7-3.5s0.4-3-0.3-4.3c-0.4-0.6-0.9-1.1-1.5-1.3
					s-1.4-0.3-2.1-0.3c-1.4,0-2.7,0.4-3.6,0.9c-0.9,0.5-1.5,1.2-1.7,1.7s-0.3,0.9-0.4,0.9c-0.1,0-0.3-0.4-0.2-1.1
					c0.1-0.7,0.6-1.8,1.7-2.5c1-0.8,2.5-1.3,4.2-1.5c0.8,0,1.7,0,2.7,0.3s1.9,1,2.4,2c1.1,1.9,0.9,3.9,0.3,5.6
					c-0.6,1.6-1.5,2.8-2.2,3.7C182.5,84.8,181.6,86,181.4,85.9z"/>
			</g>
		</g>
	</g>
	<g>
		<g>
			<g>
				<path class="st0" d="M215.4,122.7c0,0.1-1.7-0.1-4.7-0.6s-7.3-1.2-12.6-2c-10.7-1.6-25.4-3.3-41.9-3.9c-2.1-0.1-4.1-0.2-6.2-0.5
					c-1-0.2-2-0.4-3-0.7c-0.5-0.1-1-0.3-1.5-0.5l-0.7-0.3l-1-0.5c-0.3-0.2-0.7-0.4-1.1-0.6l-0.5-0.3c-0.1,0,0-0.1,0-0.1l0.1-0.1
					l0.2-0.2l0.9-0.8l0.9-0.7c0.7-0.6,1.5-1.2,2.2-1.8c1.5-1.2,2.9-2.3,4.3-3.4c5.7-4.4,10.9-8.1,15.4-11.1s8.2-5.3,10.8-6.8
					s4.1-2.3,4.1-2.2c0.1,0.1-1.3,1.1-3.8,2.8s-6.1,4.1-10.5,7.3c-4.4,3.1-9.6,6.9-15.1,11.3c-1.4,1.1-2.8,2.2-4.3,3.4
					c-0.7,0.6-1.4,1.2-2.2,1.8l-0.4,0.3c0,0-0.1,0-0.1,0.1h0.1c0.1,0,0.1,0.1,0.2,0.1l0.3,0.1l0.6,0.3c0.4,0.2,0.9,0.3,1.3,0.5
					c0.9,0.3,1.8,0.5,2.8,0.6c1.9,0.3,3.9,0.4,6,0.5c16.5,0.6,31.4,2.5,42,4.4c5.3,0.9,9.6,1.8,12.5,2.5
					C213.8,122.1,215.5,122.6,215.4,122.7z"/>
			</g>
		</g>
	</g>
	<g>
		<g>
			<g>
				<path class="st0" d="M215.5,118.4c-0.1,0-0.2-0.7-0.8-1.8c-0.5-1.1-1.6-2.5-3.2-4c-3.3-3-7.9-7.3-12.8-12.1
					c-4.9-4.8-9.4-9.2-12.5-12.4s-5-5.3-4.8-5.5s2.3,1.6,5.6,4.6s7.9,7.3,12.8,12.1c4.9,4.8,9.4,9.1,12.5,12.4
					c1.6,1.7,2.6,3.3,3,4.6C215.8,117.7,215.6,118.4,215.5,118.4z"/>
			</g>
		</g>
	</g>
	<g>
		<g>
			<g>
				<path class="st0" d="M139.9,288.8c-0.1,0-0.1-0.6-0.2-1.8c0-1.2-0.1-2.9-0.1-5.2c-0.1-4.5-0.1-11-0.1-19c0-16,0.1-38.1,0.5-62.6
					c0.4-24.4,1-46.5,1.6-62.6c0.3-8,0.5-14.5,1-19c0.3-2.2,0.5-4,0.8-5.1c0.2-1.2,0.4-1.8,0.5-1.7c0.1,0,0,0.6-0.1,1.8
					s-0.3,2.9-0.5,5.1c-0.3,4.4-0.4,10.9-0.5,18.9c-0.3,16-0.7,38.1-1.1,62.6c-0.4,24.4-0.8,46.5-1,62.6c-0.2,8-0.3,14.5-0.4,19
					c-0.1,2.2-0.1,4-0.2,5.2C140,288.2,140,288.8,139.9,288.8z"/>
			</g>
		</g>
	</g>
	<g>
		<g>
			<g>
				<path class="st0" d="M180.1,141.7c-0.4,0.3-2.1-1.5-4.2-3.5c-2.1-2-3.9-3.6-3.7-4s2.6,0.7,4.8,2.8
					C179.3,139.2,180.5,141.5,180.1,141.7z"/>
			</g>
		</g>
	</g>
	<g>
		<g>
			<g>
				<path class="st0" d="M184.9,299.1c-0.1,0-0.2-0.5-0.4-1.6c-0.2-1-0.5-2.6-0.8-4.5c-0.2-1-0.3-2.1-0.5-3.3
					c-0.1-1.2-0.3-2.5-0.5-3.9c-0.3-2.8-0.8-6-1-9.6c-0.1-1.8-0.3-3.7-0.5-5.6c-0.1-1.9-0.2-4-0.3-6.1c-0.3-4.2-0.4-8.7-0.5-13.4
					c-0.2-9.5-0.1-19.9,0-30.8c0.2-10.9,0.3-21.3,0.4-30.8c0-4.7,0-9.2-0.1-13.4c0-2.1,0-4.1-0.1-6.1c-0.1-1.9-0.1-3.8-0.2-5.6
					c-0.1-3.6-0.3-6.8-0.5-9.6c-0.1-1.4-0.2-2.7-0.2-3.9c-0.1-1.2-0.2-2.3-0.3-3.3c-0.2-2-0.3-3.5-0.3-4.6c-0.1-1.1-0.1-1.6,0-1.6
					s0.2,0.5,0.3,1.6s0.4,2.6,0.6,4.6c0.1,1,0.3,2.1,0.4,3.3c0.1,1.2,0.2,2.5,0.4,3.9c0.2,2.8,0.6,6.1,0.7,9.6
					c0.1,1.8,0.2,3.7,0.3,5.6c0.1,2,0.1,4,0.2,6.1c0.2,4.2,0.2,8.7,0.2,13.4c0,9.5-0.1,19.9-0.3,30.8s-0.2,21.3-0.2,30.7
					c0.1,4.7,0.1,9.2,0.3,13.4c0.1,2.1,0.1,4.1,0.2,6.1c0.1,1.9,0.2,3.8,0.4,5.6c0.2,3.6,0.5,6.8,0.8,9.6c0.1,1.4,0.2,2.7,0.4,3.9
					c0.1,1.2,0.3,2.3,0.4,3.3c0.2,2,0.4,3.5,0.5,4.6S185,299,184.9,299.1z"/>
			</g>
		</g>
	</g>
	<g>
		<g>
			<g>
				<path class="st0" d="M221.6,286.6c-0.1,0-0.1-0.6-0.3-1.6s-0.3-2.7-0.4-4.8c-0.2-2.1-0.4-4.6-0.5-7.5c-0.2-2.9-0.4-6.3-0.5-10
					c-0.3-7.4-0.5-16.2-0.6-26s-0.1-20.5-0.2-31.8c-0.1-11.3-0.2-22-0.5-31.8c-0.2-4.9-0.3-9.5-0.6-13.9c-0.1-2.2-0.2-4.3-0.3-6.3
					s-0.3-3.9-0.4-5.8c-0.2-3.7-0.6-7-0.8-9.9c-0.1-1.5-0.2-2.8-0.3-4.1s-0.3-2.4-0.4-3.4c-0.2-2.1-0.4-3.7-0.4-4.7s-0.1-1.7,0-1.7
					s0.2,0.6,0.4,1.6c0.2,1.1,0.4,2.7,0.7,4.7c0.2,1,0.3,2.2,0.5,3.4c0.1,1.3,0.3,2.6,0.5,4.1c0.3,2.9,0.7,6.3,1,9.9
					c0.2,1.8,0.3,3.8,0.5,5.8s0.3,4.1,0.4,6.3c0.3,4.3,0.5,9,0.7,13.9c0.4,9.8,0.6,20.6,0.7,31.9c0,11.3,0.1,22.1,0.1,31.8
					c0,9.8,0.1,18.6,0.3,26c0,3.7,0.2,7,0.2,10c0.1,2.9,0.2,5.5,0.2,7.5c0.1,2.1,0.1,3.7,0.1,4.8C221.6,286,221.6,286.6,221.6,286.6
					z"/>
			</g>
		</g>
	</g>
	<g>
		<g>
			<g>
				<path class="st0" d="M221.4,289.8c0.2,0.1-0.6,2.4-3.2,5.2c-1.3,1.4-3.1,2.8-5.3,4s-4.8,2.2-7.7,2.8c-2.8,0.6-5.6,0.7-8.1,0.7
					c-2.5-0.1-4.7-0.2-6.6-0.7c-1.9-0.5-3.3-1.3-4-2.1c-0.7-0.8-0.9-1.4-0.8-1.5c0.1-0.1,0.4,0.4,1.2,1s2.1,1.2,3.8,1.5
					s3.9,0.3,6.4,0.3c2.4,0,5.1-0.2,7.8-0.8c5.4-1,9.9-3.6,12.5-6C220.1,291.8,221.2,289.7,221.4,289.8z"/>
			</g>
		</g>
	</g>
	<g>
		<g>
			<g>
				<path class="st0" d="M176.5,294.3c0.1,0.1-0.2,0.6-1,1.3c-0.8,0.7-2.1,1.5-3.9,2.2c-1.8,0.7-4,1.1-6.4,1.5s-5.2,0.6-8.1,0.4
					c-2.9-0.2-5.6-0.8-8-1.7c-2.3-1-4.3-2.2-5.7-3.5c-2.8-2.6-3.6-5-3.4-5c0.2-0.1,1.3,1.9,4.2,4.1c1.4,1.1,3.3,2.2,5.5,3
					s4.8,1.3,7.5,1.5s5.4,0,7.8-0.3c2.4-0.3,4.5-0.6,6.3-1.1C174.7,295.8,176.4,294.1,176.5,294.3z"/>
			</g>
		</g>
	</g>
	<g>
		<g>
			<g>
				<path class="st0" d="M175.6,295c-0.2,0-0.3-3-0.1-7.9s0.6-11.6,1.1-19c0.6-7.4,1.3-14.1,1.9-18.9c0.6-4.8,1.1-7.8,1.3-7.8
					s0.1,3-0.2,7.9c-0.3,4.8-0.8,11.5-1.4,18.9c-0.6,7.4-1.2,14.1-1.6,18.9C176.2,292,175.8,295,175.6,295z"/>
			</g>
		</g>
	</g>
</g>
<g id="hanger_2">
	<path class="st2" d="M90,120c-2.4,3.3-4.8,7.1-7.2,11.5c-3.3,6.3-5.6,12.1-7.2,17.2c1.1,1.4,2.7,3.2,4.9,4.8c2.7,2,5.3,3.1,7.1,3.7
		c-0.1,1.2-0.3,3.4-0.6,6.2c-1.3,11.8-2.2,15.4-1.4,21.2c0.2,1.5,0.6,3.8,1.6,6.7c1.9,1.2,4.6,2.9,7.9,4.4
		c4.6,2.1,10.2,4.1,19.8,5.5c7.1,1.1,17.5,2.1,30.4,1.4c0.2-2.1,0.5-4.2,0.8-6.4c1.3-9.5,3.3-18.3,5.5-26.4
		c4.4-2.2,8.8-4.4,13.3-6.6c1.5-0.7,2.9-1.4,4.3-2.1c-0.9-4.8-2.3-10.3-4.3-16.1c-1.7-5.1-3.6-9.7-5.5-13.7
		c-3.9-0.3-7.8-0.7-11.9-1.1c-6.5-0.7-12.8-1.6-18.8-2.6c0,1.5-0.3,4.2-1.9,7c-0.6,1-3.2,5.6-8,6.4c-5.5,0.9-9.9-4-11.5-5.7
		c-4.3-4.8-4.9-10.5-5-12.7C98.2,121.7,94.1,120.8,90,120z"/>
	<g>
		<g>
			<g>
				<path class="st0" d="M126.1,91.8c-0.2-0.1,0.5-1.6,1.6-4c0.5-1.2,1.2-2.6,1.9-4.2c0.6-1.5,1.3-3.4,0.7-4.9s-2.3-2.3-3.8-2.4
					c-1.6-0.1-3,0.4-4,1.1c-2.1,1.3-2.7,3-2.9,2.9c-0.1,0-0.1-0.5,0.2-1.2s0.9-1.7,2.1-2.6c1.1-0.9,2.8-1.7,4.7-1.6c1,0,2,0.2,3,0.8
					c1,0.5,1.9,1.4,2.3,2.6c0.4,1.2,0.4,2.4,0.1,3.4c-0.2,1-0.6,1.9-1,2.7c-0.8,1.6-1.5,3-2.2,4.1C127.3,90.6,126.3,91.9,126.1,91.8
					z"/>
			</g>
		</g>
	</g>
	<g>
		<g>
			<g>
				<path class="st0" d="M161,131.5c0,0.1-1.7,0-4.7-0.2c-3-0.3-7.3-0.7-12.7-1.4c-10.7-1.3-25.4-3.3-41.6-6.2c-2-0.4-4-0.7-6-1.1
					c-1-0.2-1.9-0.3-3-0.5c-1-0.2-2-0.5-3-1.1c-0.2-0.1-0.5-0.3-0.7-0.5s-0.6-0.6-0.8-0.9l-0.3-0.5c-0.1-0.2-0.3-0.4-0.1-0.5
					l0.4-0.4l0.5-0.4c0.7-0.7,1.5-1.3,2.2-2c1.4-1.2,2.8-2.4,4.1-3.6c5.4-4.6,10.5-8.5,14.9-11.7c4.4-3.2,8-5.6,10.6-7.2
					c2.6-1.6,4-2.4,4.1-2.3c0.1,0.1-1.3,1.1-3.7,2.8c-2.4,1.8-6,4.3-10.2,7.6c-4.3,3.3-9.3,7.3-14.6,11.9c-1.3,1.2-2.7,2.4-4.1,3.6
					c-0.7,0.6-1.3,1.2-2,1.8l-0.1,0.1c0,0,0,0.1,0.1,0.1c0,0,0,0,0.1,0.1c0,0,0,0,0.1,0.1s0.3,0.2,0.5,0.3c1.4,0.8,3.5,1,5.4,1.4
					c2,0.3,4,0.7,6,1.1c16.2,2.8,30.9,5,41.5,6.6c5.3,0.8,9.6,1.4,12.6,1.9C159.3,131,161,131.3,161,131.5z"/>
			</g>
		</g>
	</g>
	<g>
		<g>
			<g>
				<path class="st0" d="M158,128.8c-0.2,0.1-1.1-2.6-4.1-5.9c-1.4-1.7-3.3-3.5-5.4-5.7c-2-2.1-4.3-4.5-6.6-7
					c-4.6-5-8.8-9.6-11.7-13c-2.9-3.4-4.7-5.6-4.5-5.7c0.2-0.2,2.2,1.7,5.3,4.9c3.2,3.2,7.4,7.7,12.1,12.7c2.3,2.5,4.5,4.9,6.5,7.1
					c2,2.2,3.8,4.2,5.2,6s2.3,3.5,2.7,4.7C158,128.1,158.1,128.8,158,128.8z"/>
			</g>
		</g>
	</g>
	<g>
		<g>
			<g>
				<path class="st0" d="M128.8,127.2c0.1,0,0.5,0.6,0.5,1.8c0.1,1.2-0.3,3-1.3,5c-1,1.9-2.4,4.1-4.8,5.9c-1.2,0.9-2.6,1.6-4.2,2
					c-1.6,0.4-3.4,0.3-5-0.1c-3.3-1-5.9-3.2-7.5-5.5c-1.7-2.4-2.5-4.8-3.1-6.9c-0.6-2-0.9-3.7-1-4.9c-0.2-1.2-0.2-1.8-0.1-1.8
					c0.1,0,0.4,0.6,0.7,1.7c0.4,1.1,0.8,2.7,1.5,4.7c0.7,1.9,1.7,4.2,3.2,6.3c1.6,2.1,3.9,4,6.8,4.8c1.4,0.4,2.9,0.4,4.2,0.1
					c1.3-0.3,2.6-0.9,3.6-1.7c2.1-1.5,3.6-3.5,4.6-5.3c1-1.7,1.5-3.3,1.6-4.4C128.8,127.8,128.7,127.2,128.8,127.2z"/>
			</g>
		</g>
	</g>
	<g>
		<g>
			<g>
				<path class="st0" d="M151.7,169.8c-0.1-0.2,2.5-1.7,6.7-4c1.1-0.6,2.2-1.2,3.5-1.8c0.6-0.3,1.3-0.7,1.9-1c0.7-0.3,1.3-0.7,2-1.1
					c0.6-0.4,1.2-0.9,1.5-1.4c0.4-0.6,0.4-1.1,0.3-1.9c-0.3-1.7-0.6-3.4-1.1-5.2c-1.6-7.1-3.8-13.3-5.5-17.7c-1.8-4.4-3-7.1-2.8-7.2
					c0.2-0.1,1.8,2.4,3.9,6.7c2.1,4.3,4.5,10.6,6.1,17.8c0.4,1.8,0.7,3.5,1,5.3c0.1,0.5,0.1,1,0,1.5s-0.3,1-0.6,1.4
					c-0.6,0.8-1.3,1.4-2,1.8s-1.4,0.8-2.1,1.1c-0.7,0.3-1.3,0.6-2,0.9c-1.3,0.6-2.5,1.1-3.6,1.7C154.5,168.9,151.8,170,151.7,169.8z
					"/>
			</g>
		</g>
	</g>
	<g>
		<g>
			<g>
				<path class="st0" d="M89.1,157.6c0,0.2-2.7-0.3-6.6-2.2c-1-0.5-2-1.1-3.1-1.8c-0.5-0.4-1.1-0.7-1.6-1.1s-1.1-0.8-1.7-1.4
					c-0.5-0.6-1.1-1.3-1.3-2.2c-0.2-0.9-0.1-1.8,0.2-2.6c0.2-0.8,0.6-1.5,0.9-2.3c0.3-0.7,0.6-1.5,0.9-2.2c2.6-6,5.5-11.2,7.9-14.7
					c2.3-3.6,4-5.6,4.2-5.5c0.4,0.3-5.5,9-10.6,20.9c-0.3,0.7-0.6,1.5-0.9,2.2s-0.6,1.5-0.8,2.1c-0.2,0.7-0.3,1.3-0.2,1.8
					c0.1,0.5,0.4,1,0.8,1.5c0.9,0.9,2,1.7,3,2.5c1,0.7,2,1.3,2.9,1.9C86.6,156.5,89.2,157.3,89.1,157.6z"/>
			</g>
		</g>
	</g>
	<g>
		<g>
			<g>
				<path class="st0" d="M142.9,202.8c0,0.1-1.3,0.3-3.5,0.5c-2.3,0.2-5.6,0.3-9.8,0.2c-8.2-0.2-19.7-1.7-31.7-5.9
					c-1.5-0.5-3-1.1-4.4-1.6c-1.4-0.6-2.9-1.1-4.2-1.9c-1.3-0.8-2.6-1.8-3.4-3.2c-0.8-1.4-1-3-1.1-4.4c0-5.5,0.2-10.4,0.6-14.5
					c0.3-4.1,0.9-7.4,1.4-9.7c0.5-2.3,1-3.5,1.1-3.4c0.1,0-0.1,1.3-0.4,3.5c-0.3,2.3-0.7,5.6-0.9,9.6c-0.2,4.1-0.3,9-0.2,14.4
					c0.1,1.3,0.3,2.6,0.9,3.7s1.7,1.9,2.9,2.6c1.2,0.7,2.6,1.2,4,1.8c1.4,0.6,2.9,1.1,4.3,1.6c11.8,4.1,23,5.7,31.2,6.2
					C137.8,202.9,142.9,202.5,142.9,202.8z"/>
			</g>
		</g>
	</g>
	<g>
		<g>
			<g>
				<path class="st0" d="M145,204c-0.4-0.1,0.2-7.9,2-17.4s4.2-17,4.6-16.9c0.4,0.1-1.2,7.7-3,17.2C146.8,196.4,145.4,204.1,145,204
					z"/>
			</g>
		</g>
	</g>
</g>
<g id="hanger_1">
	<path class="st2" d="M32.3,135.6c-0.6,3.3-1,6.9-1.2,10.8c-0.6,10.3,0.7,19.3,2.3,26.4c-0.9,0.7-1.9,1.5-2.9,2.4
		c-3,2.6-5.5,5.3-7.5,7.8c3.4-0.9,4.9-0.2,5.8,0.5c1.9,1.6,0.7,4.2,3,7.8c0.8,1.3,1.9,3,3.5,3.2c2.1,0.2,2.8-2.5,5.5-2.8
		c2-0.2,3.7,1.1,5.8,2.8c3.4,2.7,3.7,4.7,6,5c1.3,0.2,2.8-0.2,3.8-1c2-1.6,1.1-4,3.1-5.3c0.9-0.6,2.3-0.8,3.3-0.5
		c1.8,0.6,1.6,2.4,3.5,3.9c1.4,1.1,3.3,1.5,4.9,1.2c2.6-0.5,4.8-3.3,5.3-6.8c-1.6-1.1-3.8-2.9-5.9-5.5c-1.7-2.1-2.8-4.2-3.5-5.8
		c1.8-4,3-7.6,3.7-10.4c0.9-3.2,1.8-6.5,2.1-11c0.3-4.7-0.5-4-0.3-10.3c0.1-3.5,0.4-5-0.6-5.8c-1.7-1.4-5.5,0.4-7.2,1.2
		c-3,1.4-4.9,3.3-5.9,4.2c-2.7,2.6-6.2,6.1-10.3,10.8c-1.3-6.3-3.7-10.8-5.3-13.4c-2.1-3.4-3.8-4.9-4.8-5.7
		C36.2,137.2,33.9,136.1,32.3,135.6z"/>
	<g>
		<g>
			<g>
				<path class="st0" d="M59,99.4c-0.2-0.2,1.1-1.7,2.8-4.2c0.8-1.3,1.7-2.9,2.2-4.8c0.5-1.9,0.6-4.1-0.3-6.1
					c-0.8-2-2.6-3.3-4.4-3.9c-1.8-0.6-3.6-0.3-4.9,0.2c-1.3,0.6-2.3,1.4-2.8,2c-0.6,0.6-0.9,1-1,1s0-0.5,0.5-1.3s1.4-1.8,2.8-2.6
					c0.7-0.4,1.6-0.7,2.6-0.9c1-0.1,2.1-0.1,3.2,0.2c2.2,0.6,4.4,2.2,5.4,4.7s0.9,5,0.2,7.1c-0.6,2.1-1.7,3.8-2.7,5
					C60.6,98.4,59.1,99.6,59,99.4z"/>
			</g>
		</g>
	</g>
	<g>
		<g>
			<g>
				<path class="st0" d="M96.3,131.1c-0.1,0.1-1.1-0.6-2.8-1.9c-1.8-1.3-4.3-3.2-7.3-5.6c-6.1-4.8-14.6-11.4-23.8-18.9
					c-2.1-1.7-4.2-3.4-6.1-5c-0.8,0.6-1.6,1.2-2.4,1.8c-1,0.7-1.9,1.4-2.9,2c-1.9,1.3-3.7,2.5-5.4,3.7c-3.5,2.3-6.6,4.3-9.2,5.9
					c-2.6,1.6-4.8,2.8-6.3,3.6s-2.3,1.2-2.4,1.1c-0.1-0.2,3-2.2,8.1-5.6c2.6-1.7,5.6-3.8,9-6.2c1.7-1.2,3.5-2.5,5.3-3.8
					c0.9-0.7,1.9-1.4,2.8-2c1.1-0.8,2.3-1.7,3.4-2.5c2.3,1.8,4.7,3.8,7.1,5.7c9.2,7.5,17.5,14.3,23.5,19.3c3,2.5,5.4,4.5,7,6
					S96.4,131,96.3,131.1z"/>
			</g>
		</g>
	</g>
	<g>
		<g>
			<g>
				<path class="st0" d="M95.7,132.4c0,0.1-1,0.2-2.8,0.2s-4.4-0.1-7.6-0.3s-7-0.6-11.2-1.1c-4.2-0.6-8.8-1.3-13.6-2.3
					c-4.8-1-9.3-2.1-13.4-3.3s-7.7-2.4-10.7-3.4c-3-1.1-5.4-2-7.1-2.8c-1.6-0.7-2.5-1.2-2.5-1.3c0.1-0.2,3.8,1.1,9.9,3
					c3,0.9,6.7,2,10.8,3.1c4.1,1.1,8.6,2.2,13.3,3.1c4.8,1,9.3,1.8,13.5,2.4c4.2,0.6,7.9,1.1,11.1,1.4
					C91.8,131.8,95.8,132.1,95.7,132.4z"/>
			</g>
		</g>
	</g>
	<g>
		<g>
			<g>
				<path class="st0" d="M34.2,136c-0.4,0-1-3.9-0.3-8.7s2.3-8.4,2.7-8.2c0.4,0.1-0.4,3.9-1.1,8.5S34.7,136,34.2,136z"/>
			</g>
		</g>
	</g>
	<g>
		<g>
			<g>
				<path class="st0" d="M71.9,144.1c-0.4,0-0.7-3.7-0.1-8.3c0.7-4.5,2.1-8,2.5-7.9s-0.2,3.7-0.9,8.1
					C72.8,140.4,72.4,144.1,71.9,144.1z"/>
			</g>
		</g>
	</g>
	<g>
		<g>
			<g>
				<path class="st0" d="M48,158.3c-0.2,0.1-0.8-1.5-1.5-4c-0.8-2.5-1.9-5.9-3.9-9.2s-4.6-5.8-6.7-7.4c-2-1.6-3.5-2.4-3.4-2.6
					c0.1-0.2,1.7,0.2,4,1.7c2.3,1.4,5.2,3.9,7.4,7.5c2.2,3.6,3.1,7.2,3.6,9.8C48.1,156.7,48.2,158.3,48,158.3z"/>
			</g>
		</g>
	</g>
	<g>
		<g>
			<g>
				<path class="st0" d="M72.1,143c0,0.2-1.7,0.5-4.3,1c-1.3,0.3-2.9,0.6-4.4,1.3c-1.6,0.6-3.1,1.7-4.6,3c-1.5,1.4-2.8,2.8-4,4.2
					c-1.2,1.3-2.4,2.5-3.3,3.4c-1.9,1.9-3.2,3-3.4,2.9s0.8-1.5,2.5-3.7c0.9-1.1,1.9-2.3,3.1-3.7c1.2-1.4,2.4-2.9,4-4.4
					s3.4-2.6,5.2-3.2c1.8-0.6,3.4-0.9,4.8-1C70.4,142.6,72.1,142.8,72.1,143z"/>
			</g>
		</g>
	</g>
	<g>
		<g>
			<g>
				<path class="st0" d="M33.7,172.2c-0.4,0.1-3.1-7.9-3.4-18.2c-0.4-10.3,1.7-18.5,2.1-18.4c0.5,0.1-0.9,8.2-0.5,18.4
					C32.2,164.1,34.1,172.1,33.7,172.2z"/>
			</g>
		</g>
	</g>
	<g>
		<g>
			<g>
				<path class="st0" d="M68.3,181.1c0,0.2-2,0.8-5.4,1.2c-3.4,0.4-8.2,0.6-13.4-0.3c-2.6-0.5-5-1.2-7.1-2.1s-3.9-2-5.3-3.1
					c-2.8-2.1-3.8-4.1-3.7-4.2c0.2-0.2,1.6,1.4,4.4,3.2c2.7,1.8,7,3.6,12,4.5s9.7,0.8,13,0.8C66.2,181,68.2,180.9,68.3,181.1z"/>
			</g>
		</g>
	</g>
	<g>
		<g>
			<g>
				<path class="st0" d="M67.6,180.3c-0.2-0.1,0.2-2.1,1-5.4c0.4-1.6,0.9-3.6,1.5-5.7s1.2-4.5,1.6-7c0.8-5,0.5-9.6,0.4-13
					c-0.2-3.4-0.2-5.5,0-5.5s0.7,2,1.1,5.4s0.9,8.1,0.1,13.3c-0.4,2.6-1.1,5-1.8,7.2c-0.7,2.1-1.3,4-1.9,5.6
					C68.6,178.4,67.8,180.4,67.6,180.3z"/>
			</g>
		</g>
	</g>
	<g>
		<g>
			<g>
				<path class="st0" d="M76.4,190.4c0,0,0.2,0.3,0.2,0.9c0.1,0.6,0,1.5-0.4,2.6s-1.2,2.4-2.7,3.4c-1.4,1-3.6,1.3-5.7,0.7
					c-1-0.3-2.1-0.9-2.9-1.8c-0.9-0.9-1.4-1.9-2.1-2.7c-0.7-0.7-1.6-0.9-2.4-0.3c-0.4,0.3-0.8,0.7-1.1,1.2c-0.3,0.5-0.6,1-0.8,1.6
					c-0.3,0.6-0.5,1.3-0.9,1.9s-0.9,1.3-1.6,1.8s-1.6,0.7-2.5,0.6c-0.9,0-1.7-0.3-2.4-0.7c-1.4-0.7-2.6-1.8-3.6-3s-1.9-2.3-3-3.2
					c-1.1-0.9-2.3-1.4-3.4-1.2c-1.1,0.2-2.2,1.1-3.5,1.9c-0.6,0.4-1.3,0.8-2.2,0.9c-0.9,0.1-1.8-0.1-2.5-0.6s-1.2-1.2-1.4-1.9
					c-0.3-0.7-0.4-1.4-0.5-2.1c-0.1-1.4,0-2.6-0.2-3.7s-0.7-2-1.6-2.5c-0.8-0.5-1.9-0.8-2.9-0.9c-0.5,0-0.9-0.1-1.8,0
					c-0.8,0.1-1.6,0.1-2.4,0.2c0,0,0-0.1,0.1-0.2l0.2-0.3l0.3-0.5c0.2-0.3,0.4-0.6,0.7-1c0.2-0.3,0.4-0.6,0.7-0.9
					c0.2-0.2,0.3-0.4,0.5-0.6c0.6-0.7,1.2-1.4,1.9-2c1.2-1.2,2.4-2.1,3.4-2.8c2-1.3,3.3-1.8,3.3-1.7c0.1,0.1-1.1,0.8-2.9,2.2
					c-0.9,0.7-2,1.7-3.1,2.9c-0.6,0.6-1.1,1.3-1.7,2c-0.1,0.2-0.3,0.4-0.4,0.6l-0.2,0.3l-0.2,0.3l-0.1,0.1v0.1l0,0
					c0.5-0.1,0.6-0.1,2.1-0.1c1.1,0.1,2.4,0.3,3.5,1c1.2,0.7,2,2,2.3,3.4c0.3,1.3,0.2,2.7,0.3,3.9c0.1,1.2,0.6,2.4,1.4,3
					s1.9,0.4,3-0.4c1.1-0.7,2.3-1.8,4.1-2.1c0.9-0.2,1.8-0.1,2.6,0.2c0.8,0.3,1.5,0.7,2.1,1.2c1.3,1,2.3,2.3,3.2,3.4
					c0.9,1.1,2,2,3.1,2.6c1.2,0.6,2.4,0.7,3.3,0.1c0.9-0.5,1.5-1.7,2-3c0.5-1.2,1.2-2.6,2.5-3.4c0.6-0.4,1.5-0.6,2.3-0.5
					s1.5,0.6,1.9,1.1c0.9,1,1.4,2,2.1,2.7s1.5,1.2,2.4,1.5c1.8,0.6,3.6,0.4,4.8-0.4c1.3-0.7,2.1-1.9,2.5-2.8
					C76.6,191.7,76.3,190.4,76.4,190.4z"/>
			</g>
		</g>
	</g>
	<g>
		<g>
			<g>
				<path class="st0" d="M76.5,190.9c-0.2,0.4-3.2-1.4-5.9-4.6c-2.7-3.2-3.8-6.5-3.4-6.6c0.4-0.2,2.2,2.5,4.7,5.6
					C74.4,188.3,76.8,190.5,76.5,190.9z"/>
			</g>
		</g>
	</g>
</g>
<g id="character">
	<g id="head">
		<path d="M424.3,1.3c-1.8-0.5-4.6-1-7.9-0.7c-8.5,0.7-14.2,5.9-19.1,10.4c-4.2,3.9-6.9,7.5-8.7,11.3c-2.5,5.3-1.9,7.9-1.4,9
			c0.7,1.8,2.1,3,3,3.7c-0.1,3.6-0.4,8.9-1.9,15.3c-2.2,9.5-4.6,11.4-9.3,23.8c-4,10.5-6.6,17.7-6.4,27.4c0.1,3.5,0.2,9,2.8,15.4
			c1.4,3.4,5.1,11.3,13.7,17.3c10,6.9,20.3,6.9,24,6.8c16-0.3,26.9-9.7,32.3-14.3c3.5-3,13.5-12.3,18.5-27.8
			c2.2-6.8,5.1-15.6,2.3-25.5c-2.1-7.6-5.3-7.8-9.1-18c-3.2-8.6-1.1-8.8-4.5-20.8c-2.9-10.2-3.9-7.8-8.7-22.2
			c-2-5.8-2.6-8.6-5.5-10.6C434-1.2,427.8,0.2,424.3,1.3z"/>
		<path class="st2" d="M425.9,5.5C422.2,4,418,7,411.1,11.2c-5.9,3.5-9.5,7.6-12.9,11.5c-3.4,3.8-5.8,7.3-7.5,9.9
			c-0.3,1.3-0.5,2.6-0.8,4c-0.5,0.2-2.5,1.1-3.6,3.3c-0.2,0.3-1.5,3.1-0.2,5.7c1.3,2.4,4.4,3.7,7.6,2.9c0.3,3.1,1,5.6,1.5,7.4
			c0.9,2.9,2.5,7.8,6.8,12.2c1,1,1.9,1.8,2.5,2.2c-0.4,1.5-0.7,3-1,4.6c-0.5,2.4-0.8,4.8-1.1,7c1,1,3.4,3,6.8,3.5
			c1.6,0.3,5.4,0.9,7.8-1.6c1.3-1.3,1.6-2.9,1.7-3.8c-0.3-1.3-0.7-3.1-0.5-5.4c0.1-1.5,0.4-2.7,0.7-3.7c1.4-0.8,3.3-2,5.3-3.6
			c1.2-1,3.8-3.2,6.5-6.7c2.4-3.2,4-6.2,5-8.7c0.9,0.1,2.4,0.2,4.1-0.4c0.5-0.2,3.3-1.2,4.9-4.2c0.5-1,1.1-2.2,1-3.7
			c-0.4-3.1-3.9-4.6-4.1-4.7c-1.9-3-4.5-7.4-6.9-13.1C429.7,13.5,430.4,7.2,425.9,5.5z"/>
		<g>
			<g>
				<path class="st3" d="M474.3,1.8"/>
			</g>
		</g>
		<g>
			<g>
				<g>
					<path class="st0" d="M435.5,52.1c0.1,0-0.1,1-0.8,2.7c-0.7,1.7-1.9,4.1-3.9,6.7c-2,2.6-4.7,5.5-8.3,8c-1.8,1.2-3.8,2.4-6.1,3.2
						c-1.2,0.4-2.4,0.7-3.7,0.7c-1.3,0.1-2.6-0.1-3.9-0.4c-1.3-0.3-2.5-0.9-3.5-1.6c-1.1-0.7-2-1.5-2.9-2.3
						c-1.7-1.7-3.1-3.6-4.2-5.5c-2.1-3.8-3.4-7.6-4.2-10.7c-0.8-3.2-1.1-5.8-1.2-7.6s0-2.8,0.1-2.8s0.3,1,0.5,2.8
						c0.3,1.8,0.7,4.3,1.7,7.4c0.9,3.1,2.3,6.7,4.4,10.3c1.1,1.8,2.4,3.6,4,5.1c0.8,0.8,1.7,1.5,2.7,2.1s2,1.1,3.1,1.4
						c2.2,0.6,4.5,0.4,6.6-0.3s4-1.8,5.8-2.9c3.5-2.3,6.2-5,8.3-7.4C433.9,55.8,435.2,51.9,435.5,52.1z"/>
				</g>
			</g>
		</g>
		<g>
			<g>
				<g>
					<path class="st0" d="M390,36.4c0.2,0.2-0.7,1-1.9,2.2c-0.6,0.6-1.2,1.4-1.6,2.3c-0.4,0.9-0.6,2.1-0.1,3.1
						c0.4,1,1.3,1.7,2.3,2.4c0.9,0.6,1.8,1.1,2.5,1.4c1.5,0.6,2.5,0.2,2.6,0.4c0,0.1-0.1,0.3-0.7,0.6c-0.5,0.2-1.4,0.3-2.3,0.1
						c-1-0.2-2-0.7-3-1.3s-2.3-1.5-3-3c-0.7-1.6-0.3-3.2,0.3-4.3c0.6-1.2,1.4-2,2.2-2.6C388.8,36.7,389.8,36.3,390,36.4z"/>
				</g>
			</g>
		</g>
		<g>
			<g>
				<g>
					<path class="st0" d="M442.5,39.2c0-0.1,0.3-0.2,0.9,0c0.6,0.1,1.4,0.6,2.1,1.4c0.7,0.8,1.2,2.1,1.1,3.6s-0.7,2.9-1.6,4.2
						c-1.9,2.6-4.8,3.9-6.8,3.9c-1,0.1-1.9-0.1-2.4-0.4c-0.5-0.2-0.8-0.5-0.7-0.5c0.1-0.3,1.2,0.1,3-0.2c1.7-0.3,4.1-1.5,5.7-3.7
						c0.8-1.1,1.3-2.3,1.4-3.4c0.1-1.1-0.1-2.1-0.6-2.8C443.6,39.7,442.4,39.5,442.5,39.2z"/>
				</g>
			</g>
		</g>
		<g>
			<g>
				<g>
					<path class="st0" d="M414.8,48.9c-0.1,0.1-1.3-1.1-1.9-3.5c-0.6-2.5-0.5-6,0.4-9.6s1.8-6.7,2.1-9.1c0.3-2.3,0.2-3.8,0.4-3.8
						c0.2,0,0.8,1.4,0.7,3.9c0,2.5-0.8,5.8-1.7,9.4c-0.9,3.5-1.2,6.7-0.9,9C414.3,47.5,415.1,48.8,414.8,48.9z"/>
				</g>
			</g>
		</g>
		<g>
			<g>
				<g>
					<path class="st0" d="M424.4,48.2c0.2,0.1-0.1,1.2-1.2,2.6c-1,1.5-2.9,3.3-5.4,4.5c-1.2,0.6-2.5,1-3.8,1.2
						c-1.2,0.2-2.4,0-3.3-0.3s-1.5-0.9-1.9-1.3c-0.3-0.4-0.4-0.7-0.3-0.8c0.2-0.2,0.9,0.7,2.4,1c0.8,0.1,1.7,0.1,2.7-0.1
						c1-0.2,2.1-0.6,3.3-1.2c2.3-1.1,4-2.6,5.2-3.7C423.5,49,424.2,48.1,424.4,48.2z"/>
				</g>
			</g>
		</g>
		<g>
			<g>
				<g>
					<path class="st0" d="M407.9,35.8c-0.4,0-0.6-1.7-0.4-3.6c0.2-2,0.7-3.5,1.2-3.5c0.4,0,0.6,1.7,0.4,3.6
						C408.9,34.2,408.4,35.9,407.9,35.8z"/>
				</g>
			</g>
		</g>
		<g>
			<g>
				<g>
					<path class="st0" d="M413.3,20.1c-0.2,0.2-0.8-0.1-1.9-0.4c-1-0.2-2.5-0.2-3.9,0.4c-1.4,0.7-2.3,1.9-2.7,2.8
						c-0.5,1-0.6,1.7-0.9,1.7c-0.2,0-0.5-0.8-0.2-2.1c0.2-1.3,1.2-3,3.1-3.9s3.9-0.6,5-0.1C413,19.2,413.4,19.9,413.3,20.1z"/>
				</g>
			</g>
		</g>
		<g>
			<g>
				<g>
					<path class="st0" d="M424.8,36.1c-0.4,0-0.9-1.4-0.8-3.3c0.1-1.9,0.8-3.3,1.2-3.2c0.4,0.1,0.5,1.5,0.4,3.3
						C425.5,34.6,425.3,36,424.8,36.1z"/>
				</g>
			</g>
		</g>
		<g>
			<g>
				<g>
					<path class="st0" d="M434.8,26c-0.3,0-0.3-0.9-1.1-2.1c-0.7-1.2-2.1-2.5-4-3.4c-1.9-0.8-3.9-1-5.1-0.6
						c-1.3,0.4-1.6,1.2-1.9,1.1c-0.1,0-0.2-0.3,0-0.8c0.2-0.4,0.6-1,1.4-1.4s1.7-0.6,2.8-0.6c1.1,0,2.3,0.3,3.4,0.8
						c2.3,1,3.9,2.8,4.4,4.4C435.4,25,435,26,434.8,26z"/>
				</g>
			</g>
		</g>
		<g>
			<g>
				<path class="st1" d="M407.6,39.6"/>
			</g>
		</g>
		<g>
			<g>
				<g>
					<path class="st0" d="M403.1,40.6c-0.4,0.3-0.8,0.2-1,0c-0.2-0.3,0-0.7,0.3-0.9c0.4-0.3,0.8-0.2,1,0S403.5,40.3,403.1,40.6z"/>
				</g>
			</g>
		</g>
		<g>
			<g>
				<g>
					<ellipse class="st0" cx="406.9" cy="40.3" rx="0.8" ry="0.6"/>
				</g>
			</g>
		</g>
		<g>
			<g>
				<g>
					<path class="st0" d="M404.3,45.5c-0.5,0-0.8-0.4-0.8-1s0.4-1,0.8-1s0.8,0.4,0.8,1S404.8,45.5,404.3,45.5z"/>
				</g>
			</g>
		</g>
		<g>
			<g>
				<g>
					<path class="st0" d="M421.9,41.3c-0.4,0.1-0.9-0.2-1-0.6c-0.1-0.4,0.2-0.9,0.6-1s0.9,0.2,1,0.6
						C422.7,40.7,422.4,41.2,421.9,41.3z"/>
				</g>
			</g>
		</g>
		<g>
			<g>
				<g>
					<path class="st0" d="M425.8,40.9c-0.5,0-0.8-0.2-0.8-0.5s0.4-0.5,0.8-0.5s0.8,0.2,0.8,0.5C426.6,40.7,426.2,40.9,425.8,40.9z"
						/>
				</g>
			</g>
		</g>
		<g>
			<g>
				<g>
					<path class="st0" d="M423.8,44.8c-0.5,0-0.8-0.3-0.8-0.6c0-0.4,0.4-0.6,0.8-0.6s0.8,0.3,0.8,0.6
						C424.7,44.6,424.3,44.8,423.8,44.8z"/>
				</g>
			</g>
		</g>
		<g>
			<g>
				<g>
					<path class="st0" d="M421.5,0.9c0,0.1-0.8,0-2.1,0c-1.3,0-3.2,0.1-5.5,0.8c-4.5,1.3-10.2,4.9-15.7,9.6c-2.7,2.4-5,5-6.8,7.5
						c-1.8,2.6-3.1,5.1-3.4,7.3c-0.4,2.3,0.3,4.1,0.9,5.2c0.7,1.1,1.3,1.6,1.2,1.7c0,0.1-0.8-0.2-1.7-1.3c-0.9-1.1-1.8-3.1-1.5-5.7
						c0.2-2.6,1.5-5.3,3.3-8s4.1-5.4,6.9-7.9s5.7-4.5,8.5-6.1s5.5-2.8,7.9-3.3c2.4-0.6,4.5-0.5,5.8-0.3
						C420.9,0.5,421.6,0.9,421.5,0.9z"/>
				</g>
			</g>
		</g>
		<g>
			<g>
				<g>
					<path class="st0" d="M427.1,5.3c0,0.3-2.6,0.6-6.5,2s-9.1,4.1-14,8.2s-8.7,8.5-11.3,11.8c-2.7,3.3-4.3,5.4-4.5,5.2
						c-0.2-0.1,1.1-2.4,3.6-5.9s6.2-8.1,11.2-12.4c5.1-4.2,10.5-6.9,14.7-8C424.4,5,427.1,5.1,427.1,5.3z"/>
				</g>
			</g>
		</g>
		<g>
			<g>
				<g>
					<path class="st0" d="M442.6,38.7c-0.1,0.2-2-0.9-4.1-3.7c-1-1.4-2.1-3.1-3-5.2c-0.9-2-1.8-4.3-2.7-6.7c-3.5-9.7-4.6-18-4.2-18
						c0.5-0.1,2.3,8,5.7,17.5c1.7,4.8,3.4,9,5.1,11.8C441.2,37.2,442.8,38.5,442.6,38.7z"/>
				</g>
			</g>
		</g>
		<g>
			<g>
				<g>
					<path class="st0" d="M465,71.7c-0.1,0.1-0.8-0.9-1.9-2.6c-1.1-1.8-2.6-4.4-4.2-7.8c-1.5-3.4-3.1-7.6-4.7-12.3
						c-1.5-4.7-3-9.9-4.5-15.4s-3-10.7-4.5-15.3c-0.4-1.2-0.8-2.3-1.2-3.4c-0.4-1.1-0.8-2.1-1.2-3.2c-0.8-2-1.6-3.9-2.6-5.4
						s-2.1-2.7-3.3-3.4c-1.2-0.7-2.4-1-3.4-1.1c-2-0.1-3,0.6-3.1,0.4c0,0,0.2-0.3,0.7-0.5c0.5-0.3,1.3-0.5,2.4-0.6
						c1.1,0,2.4,0.2,3.8,0.9c1.4,0.7,2.7,1.9,3.9,3.5c1.1,1.6,2,3.5,2.9,5.5c0.4,1,0.8,2.1,1.3,3.2c0.4,1.1,0.8,2.2,1.2,3.4
						c1.6,4.7,3.1,9.9,4.6,15.4s2.9,10.7,4.3,15.4s2.9,8.8,4.3,12.3C462.8,67.6,465.2,71.5,465,71.7z"/>
				</g>
			</g>
		</g>
		<g>
			<g>
				<g>
					<path class="st0" d="M402.5,81.7c-0.2-0.1-0.1-0.7,0.1-1.7s0.3-2.3,0.3-3.8c0-3-0.2-5.6,0.3-5.7c0.2,0,0.5,0.6,0.8,1.6
						s0.5,2.4,0.5,4.1c0,1.6-0.3,3.1-0.8,4.1C403.2,81.3,402.6,81.8,402.5,81.7z"/>
				</g>
			</g>
		</g>
		<g>
			<g>
				<g>
					<path class="st0" d="M417.2,83.1c0.1,0.1-0.4,1-1.8,1.9c-1.4,0.8-3.7,1.6-6.2,1.3s-4.6-1.5-5.7-2.8c-0.6-0.6-0.8-1.3-0.9-1.8
						s0-0.7,0.1-0.8c0.2-0.1,0.6,0.8,1.7,1.7s2.9,1.7,5.1,2c2.2,0.2,4.2-0.2,5.5-0.7C416.2,83.4,417,82.9,417.2,83.1z"/>
				</g>
			</g>
		</g>
		<g>
			<g>
				<g>
					<path class="st0" d="M418.7,83.5c-0.4,0.1-1.6-2.7-1.5-6.3c0-3.7,1.2-6.4,1.6-6.3c0.5,0.1,0.1,2.9,0.1,6.3
						C418.8,80.6,419.2,83.4,418.7,83.5z"/>
				</g>
			</g>
		</g>
		<g>
			<g>
				<g>
					<path class="st0" d="M465.5,83.6c0.1,0,0,0.7-0.1,2.1c-0.1,1.4-0.4,3.3-0.9,5.9c-1,5-2.9,12.4-7.3,20.6
						c-1.1,2.1-2.4,4.1-3.8,6.2c-1.5,2.1-3.1,4.2-4.9,6.2c-3.7,4-8.2,7.9-13.6,10.9c-5.3,3.1-11.6,5.3-18.3,6.1
						c-6.7,0.8-13.9-0.1-20.5-2.8s-12.4-7-16.5-12.4s-6.2-11.8-7.2-17.9c-0.9-6.1-0.7-12.1,0.4-17.4c1.1-5.4,2.9-10.1,4.6-14.4
						c3.4-8.6,6.2-15.5,8.2-20.2c1-2.4,1.8-4.2,2.3-5.5c0.5-1.2,0.9-1.9,0.9-1.9c0.1,0-0.2,0.7-0.6,2s-1.1,3.2-2,5.6
						c-1.8,4.8-4.4,11.8-7.7,20.4c-1.6,4.3-3.3,9-4.4,14.3c-1,5.2-1.2,11-0.2,16.9s3,12,7,17.2c3.9,5.2,9.5,9.3,15.9,11.9
						c6.4,2.6,13.3,3.4,19.7,2.7c6.5-0.7,12.5-2.9,17.7-5.8c5.3-2.9,9.7-6.6,13.3-10.5c1.8-2,3.4-4,4.9-6c1.4-2,2.7-4.1,3.8-6.1
						c4.4-8,6.4-15.2,7.7-20.2c0.6-2.5,1-4.5,1.2-5.8C465.3,84.3,465.5,83.6,465.5,83.6z"/>
				</g>
			</g>
		</g>
	</g>
	<g id="leg_left">
		<path class="st2" d="M447.3,194.5c4,3.7,4.2,9.2,4.6,12.9c0.1,1.1,5.3,15.3,15.8,43.8c8.7,23.6,16.1,43.8,26.6,70
			c6.3,15.9,11.7,28.9,15.4,37.5c0.1,1.3,0.2,3.3-0.8,5.4c-1.3,2.7-3.5,4-5.3,5.1c-3.2,1.8-8.2,4.4-15,7.2
			c-2.1-3.2-4.9-7.5-8.1-12.7c-7.2-11.4-16.9-27.5-27.7-47c-17.2-31.1-28.5-55.7-31.5-62.4c-8.3-18.3-14.8-34.1-19.6-46.4
			c3.4-4.1,9.1-9.7,17.6-13.2C421.2,193.9,438.9,186.8,447.3,194.5z"/>
		<path d="M497.3,374.5c2.7,2.6,5.6,5.2,8.7,7.8c2.9,2.5,5.7,4.8,8.4,6.9c3.1-2.9,7.2-6.9,11.6-12.2c1.8-2.1,4.4-5.3,7.2-9.6
			c4.1-6.3,9.8-16.8,8.2-18c-1.3-1-7.3,4.8-15.6,12.7c-4.4,4.2-7.8,7.8-10.1,10.2c-3-2.5-6-5.1-9-7.6c-1.3,2.1-3.1,4.7-5.9,7.1
			C499.6,372.9,498.4,373.8,497.3,374.5z"/>
		<g>
			<g>
				<g>
					<path class="st0" d="M509.3,359.3c-0.1,0-0.3-0.5-0.8-1.6s-1.2-2.7-2.1-4.7c-1.8-4.1-4.2-10-7.2-17.4
						c-6-14.8-14.1-35.2-22.6-58c-8.6-22.8-16-43.5-21.2-58.5c-2.6-7.5-4.7-13.6-6.1-17.9c-0.7-2.1-1.2-3.8-1.6-4.9
						s-0.5-1.7-0.4-1.7s0.3,0.5,0.7,1.6c0.4,1.1,1.1,2.7,1.8,4.8c1.5,4.2,3.8,10.2,6.6,17.7c5.5,14.9,13.1,35.6,21.7,58.3
						c8.6,22.7,16.5,43.3,22.2,58.1c2.8,7.4,5.1,13.5,6.7,17.6c0.8,2.1,1.4,3.7,1.8,4.8C509.2,358.7,509.4,359.3,509.3,359.3z"/>
				</g>
			</g>
		</g>
		<g>
			<g>
				<g>
					<path class="st0" d="M488.4,376.3c0,0-0.4-0.4-1.1-1.3c-0.6-0.9-1.6-2.3-2.8-4c-1.2-1.8-2.6-3.9-4.3-6.5
						c-1.6-2.5-3.5-5.4-5.5-8.7c-4.1-6.4-8.8-14.2-13.8-22.9c-5.1-8.7-10.5-18.4-15.9-28.6c-5.5-10.3-10.4-20.1-14.8-29.2
						s-8.2-17.3-11.3-24.3c-1.6-3.5-2.9-6.6-4.1-9.4s-2.2-5.2-3-7.2s-1.4-3.5-1.8-4.6c-0.4-1-0.6-1.6-0.5-1.6s0.3,0.5,0.8,1.5
						s1.2,2.5,2.1,4.4s2,4.3,3.2,7c1.3,2.7,2.7,5.9,4.3,9.3c3.2,6.9,7.1,15.1,11.6,24.1s9.5,18.9,14.9,29.1
						c5.5,10.2,10.8,19.9,15.8,28.6s9.6,16.5,13.5,23c1.9,3.3,3.8,6.2,5.3,8.8c1.6,2.6,2.9,4.8,4,6.6c1.1,1.8,2,3.2,2.5,4.2
						C488.1,375.8,488.4,376.3,488.4,376.3z"/>
				</g>
			</g>
		</g>
		<g>
			<g>
				<g>
					<path class="st0" d="M509.6,358.7c0.2,0,0,1.8-1.1,4.3s-3.2,5.9-6.6,8.6c-1.7,1.3-3.4,2.4-5.1,3.2c-1.7,0.8-3.3,1.2-4.6,1.5
						c-0.7,0.1-1.3,0.2-1.9,0.3c-0.6,0.1-1.2-0.1-1.5-0.3c-0.4-0.2-0.7-0.6-0.6-0.8c0-0.2,0.1-0.4,0.2-0.4c0.1,0,0.1,0.5,0.7,0.6
						c0.3,0.1,0.7,0.1,1.2,0c0.5-0.2,1.1-0.3,1.7-0.5c1.3-0.4,2.7-0.9,4.3-1.7c1.5-0.8,3.2-1.8,4.7-3.1c3.1-2.5,5.3-5.5,6.6-7.8
						C508.8,360.2,509.3,358.7,509.6,358.7z"/>
				</g>
			</g>
		</g>
		<g>
			<g>
				<g>
					<path class="st0" d="M515.1,373.2c-0.3,0.3-2.5-1.2-4.9-3.5c-1.2-1.1-2.2-2.2-2.9-3.1c-0.7-1-0.8-1.8-0.6-1.8
						c0.2-0.1,0.6,0.4,1.4,1c0.8,0.6,2,1.6,3.2,2.7C513.7,370.8,515.4,372.8,515.1,373.2z"/>
				</g>
			</g>
		</g>
		<g>
			<g>
				<g>
					<path class="st0" d="M542.2,353.1c0.2,0.1-1.4,3.6-4.7,8.9c-3.2,5.3-8.1,12.4-14.3,19.6c-1.5,1.8-3.1,3.5-4.6,5.2
						c-0.8,0.8-1.5,1.6-2.3,2.4c-0.2,0.2-0.5,0.4-0.8,0.6s-0.8,0.3-1.2,0.2c-0.9-0.2-1.3-0.7-1.7-1c-3-2.8-5.8-5.2-8-7.4
						c-4.5-4.2-7.3-6.9-7.1-7.1c0.1-0.2,3.2,2.2,7.9,6.2c2.4,2,5.2,4.4,8.3,7.1c0.4,0.4,0.7,0.6,0.9,0.6c0.1,0,0.4-0.1,0.8-0.4
						c0.7-0.7,1.5-1.6,2.2-2.3c1.5-1.6,3-3.3,4.6-5.1c6.2-7.1,11.1-14.1,14.6-19.2C540,356.3,541.9,353,542.2,353.1z"/>
				</g>
			</g>
		</g>
		<g>
			<g>
				<g>
					<path class="st0" d="M539.6,355.6c-0.1-0.1,0.2-0.6,0.5-1.6c0.2-0.5,0.4-1.1,0.5-1.9c0.1-0.4,0.1-0.8,0.1-1.2
						c0-0.3,0-0.3,0-0.4s0-0.2,0-0.3c0-0.1-0.2-0.1-0.3-0.1s-0.2,0.1-0.3,0.1l-0.1,0.1l-0.2,0.2c-0.2,0.2-0.4,0.4-0.6,0.6
						c-0.9,0.8-1.8,1.6-2.8,2.4c-1.9,1.7-4.1,3.6-6.3,5.6c-8.8,8-15.5,15-15.9,14.7c-0.2-0.1,1.3-2.1,3.9-5
						c2.6-2.9,6.4-6.8,10.9-10.9c2.2-2,4.4-3.9,6.4-5.6c1-0.8,2-1.6,2.9-2.3c0.2-0.2,0.5-0.4,0.7-0.5l0.4-0.3
						c0.2-0.1,0.4-0.2,0.5-0.3c0.4-0.2,0.7-0.2,1.1-0.2c0.3,0,0.7,0.2,0.8,0.5c0.2,0.2,0.1,0.6,0.1,1c0,0.3,0,0.7-0.1,0.9
						c-0.1,0.5-0.2,0.9-0.3,1.3c-0.2,0.8-0.5,1.4-0.8,1.9C540.2,355.3,539.7,355.7,539.6,355.6z"/>
				</g>
			</g>
		</g>
	</g>
	<g id="leg_right">
		<path d="M394.2,408.1c0.1,4.9,0.1,9.8,0.2,14.7c-5,1.6-9.1,3.1-12.3,4.2c-9.8,3.6-12.8,5.1-15.5,7.5c-2.6,2.2-4.3,4.5-5.3,6
			c3.7-0.5,8.3-1.2,13.5-2.3c6.4-1.3,13.4-3.2,20.8-5.7c6.3-2.1,13.6-5,21.4-8.8c-0.4-2.4-0.9-5.8-1.4-9.9
			c-1.7-13.1-1.5-16-3.4-17.1C408,394.1,397.8,404.3,394.2,408.1z"/>
		<path class="st2" d="M370.6,195c-1.3,8.1-2.8,19.3-3.8,32.7c-1.5,19.2-1.2,33.5-1,50.5c0.2,12.8,0.8,31.5,2.8,54.1
			c2.6,29.4,6.3,51.1,7.1,56c1.5,8.5,2.9,15.6,3.9,20.7c3.9,1.8,7.2,2.3,9.4,2.4c7.8,0.5,14.2-2.7,24.3-8c3.2-1.7,5.8-3.2,7.6-4.3
			c-1.1-4.9-2.6-12-4.2-20.6c-2.8-14.9-7.2-42-9.4-76.6c-0.7-11-1.6-26.3-1-46.7c0.3-9.9,0.8-18.2,1.3-24.4c0.9-1.9,2.4-5.2,4.2-9.3
			c7-15.2,8.3-17.6,7.9-21.3c-0.9-8-9.1-13-10.1-13.6C399.3,180.6,383.6,183.8,370.6,195z"/>
		<g>
			<g>
				<g>
					<path class="st0" d="M379.3,408.3c-0.1,0-0.2-0.7-0.5-2s-0.7-3.3-1.3-5.9c-0.3-1.3-0.5-2.7-0.9-4.3c-0.3-1.6-0.6-3.3-0.9-5.1
						c-0.6-3.7-1.4-7.8-2.1-12.4c-0.4-2.3-0.7-4.7-1.1-7.3c-0.4-2.5-0.7-5.2-1.1-7.9c-0.8-5.4-1.4-11.3-2.2-17.4
						c-1.3-12.3-2.5-25.9-3.3-40.1c-0.7-14.3-1-27.9-0.9-40.3c0.1-6.2,0.1-12.1,0.3-17.6c0.1-2.8,0.2-5.4,0.3-8
						c0.1-2.6,0.3-5,0.4-7.3c0.2-4.7,0.6-8.9,0.8-12.6c0.1-1.9,0.3-3.6,0.4-5.2c0.2-1.6,0.3-3,0.4-4.3c0.3-2.6,0.5-4.6,0.6-6
						c0.2-1.4,0.3-2.1,0.3-2.1s0.1,0.7,0,2.1s-0.2,3.4-0.3,6c-0.1,1.3-0.2,2.8-0.3,4.3c-0.1,1.6-0.2,3.3-0.3,5.2
						c-0.2,3.7-0.4,7.9-0.6,12.6c-0.1,2.3-0.2,4.8-0.3,7.3c-0.1,2.5-0.1,5.2-0.2,7.9c-0.2,5.5-0.1,11.4-0.2,17.5
						c0,12.4,0.3,25.9,1.1,40.2c0.8,14.2,1.9,27.8,3.1,40.1c0.7,6.1,1.3,12,2,17.4c0.4,2.7,0.7,5.4,1,7.9c0.4,2.5,0.7,4.9,1,7.3
						c0.6,4.6,1.3,8.8,1.9,12.5c0.3,1.8,0.6,3.5,0.8,5.1c0.3,1.6,0.5,3,0.7,4.3c0.4,2.6,0.8,4.6,1,5.9
						C379.3,407.6,379.4,408.3,379.3,408.3z"/>
				</g>
			</g>
		</g>
		<g>
			<g>
				<g>
					<path class="st0" d="M406.5,233.9c-0.4-0.1,0.5-4.3,2.7-9s4.9-8.1,5.2-7.8c0.4,0.3-1.6,3.9-3.8,8.5
						C408.5,230.2,406.9,234,406.5,233.9z"/>
				</g>
			</g>
		</g>
		<g>
			<g>
				<g>
					<path class="st0" d="M420.9,399.1c-0.1,0-0.2-0.6-0.5-1.6c-0.3-1.1-0.7-2.7-1.2-4.8c-0.5-2.1-1.1-4.6-1.7-7.6s-1.3-6.3-2-10.1
						c-0.7-3.7-1.5-7.8-2.2-12.2c-0.8-4.4-1.4-9.1-2.2-14.1c-1.4-10-2.6-20.9-3.6-32.5c-0.9-11.6-1.5-22.6-1.8-32.7
						c-0.1-5-0.2-9.8-0.2-14.3s0-8.6,0.1-12.4c0-3.8,0.2-7.2,0.3-10.3c0.1-3,0.3-5.6,0.4-7.7s0.3-3.8,0.4-4.9s0.2-1.7,0.2-1.7
						s0.1,0.6,0.1,1.7s0,2.8-0.1,4.9s-0.1,4.7-0.1,7.7s-0.1,6.4-0.1,10.2c0,3.8,0,7.9,0.1,12.4c0,4.5,0.2,9.2,0.3,14.2
						c0.4,10,1,21,1.9,32.6c1,11.5,2.2,22.5,3.5,32.4c0.7,5,1.3,9.7,2,14.1c0.6,4.4,1.3,8.5,2,12.3c0.6,3.7,1.3,7.1,1.8,10.1
						s1,5.5,1.4,7.6s0.7,3.7,0.9,4.8C420.9,398.5,420.9,399.1,420.9,399.1z"/>
				</g>
			</g>
		</g>
		<g>
			<g>
				<g>
					<path class="st0" d="M418.8,398.8c0.1,0.1-1.3,2.1-4.4,4.6s-7.8,5.4-13.6,7.1c-2.9,0.9-5.8,1.3-8.4,1.5s-5,0.1-7-0.2
						s-3.5-1-4.5-1.6s-1.4-1.1-1.3-1.2c0.1-0.2,2.1,1.3,5.9,1.6c1.9,0.2,4.2,0.1,6.7-0.1c2.5-0.3,5.2-0.8,8-1.6
						c5.6-1.6,10.3-4.3,13.4-6.4C416.8,400.3,418.6,398.6,418.8,398.8z"/>
				</g>
			</g>
		</g>
		<g>
			<g>
				<g>
					<path class="st0" d="M394.5,422.7c-0.4,0-0.9-2.5-0.9-5.7s0.6-5.7,1-5.7c0.5,0,0.6,2.6,0.6,5.7
						C395.1,420.2,394.9,422.7,394.5,422.7z"/>
				</g>
			</g>
		</g>
		<g>
			<g>
				<g>
					<path class="st0" d="M418.4,422.9c0,0.1-1.1,0.8-3.4,2c-2.2,1.1-5.5,2.7-9.6,4.5c-4.1,1.7-9.1,3.6-14.8,5.4
						c-5.7,1.8-12,3.4-18.7,4.7c-1.7,0.3-3.3,0.6-5,0.9c-0.8,0.1-1.6,0.3-2.5,0.4c-0.5,0.1-1.1,0.2-1.6,0.2c-0.7,0.1-1.4,0.2-2,0.3
						l-1,0.1c-0.1,0,0-0.1,0-0.1l0.1-0.2l0.3-0.4c0.4-0.6,0.7-1.1,1.1-1.7c0.2-0.3,0.4-0.6,0.6-0.8l0.4-0.6l0.8-0.9
						c1.1-1.2,2.3-2.2,3.5-3.1c2.5-1.8,5-3.1,7.5-4.1c2.4-1.1,4.8-1.9,6.9-2.6c4.2-1.5,7.6-2.7,10-3.4c2.4-0.8,3.7-1.2,3.7-1
						c0,0.1-1.2,0.7-3.5,1.6s-5.7,2.3-9.8,3.9c-2.1,0.8-4.4,1.7-6.7,2.8c-2.4,1.1-4.8,2.4-7.1,4.1c-1.2,0.9-2.2,1.8-3.2,2.9
						l-0.7,0.8l-0.4,0.5c-0.1,0.1-0.1,0.2-0.2,0.3l-0.1,0.1h0.2c0.4-0.1,0.7-0.1,1.1-0.2c0.8-0.1,1.6-0.3,2.4-0.4
						c1.6-0.3,3.3-0.6,4.9-0.9c6.7-1.3,12.9-2.9,18.6-4.5c5.6-1.7,10.6-3.4,14.8-5c4.2-1.6,7.5-3,9.8-4
						C417.1,423.4,418.4,422.8,418.4,422.9z"/>
				</g>
			</g>
		</g>
		<g>
			<g>
				<g>
					<path class="st0" d="M416.8,420.4c-0.4,0.1-1.5-3.7-2.1-8.6c-0.6-4.8-0.4-8.8,0-8.8c0.5,0,1,3.9,1.6,8.6
						C416.9,416.4,417.2,420.3,416.8,420.4z"/>
				</g>
			</g>
		</g>
	</g>
	<g id="torso">
		<path class="st2" d="M372.6,79.3c-1.5,8.5-2.4,15.9-2.9,21.7c-0.6,6.7-1.6,19.2-0.5,35.1c0.9,13,2.1,12.3,1.9,20.3
			c-0.3,10.6-2.5,14.9-3,25.8c-0.4,8.3,0.4,15.1,1.1,19.6c1.5,1.1,3.7,2.6,6.5,3.9c9.9,4.8,18.9,4.3,29.5,3.6
			c10.2-0.7,18.7-1.2,28.8-6.1c6.7-3.3,11.6-7.3,14.8-10.3c-0.3-4.1-0.6-10.4-1.1-18c-1.3-19.1-1.5-20.2-1.7-26.9
			c-0.7-16.5-1.1-24.8,0.6-31.7c1.8-7.6,3.9-10,4.3-17.3c0.5-7.8-1.3-14.4-3-18.9c-6.4-0.2-12.9-0.4-19.3-0.7
			c-2.8-0.1-5.6-0.2-8.4-0.3c-0.5,1-1.8,3.3-4.5,4.9c-5.1,2.8-10.4,0.2-10.8,0c-4.3-2.2-5.6-6.3-5.9-7.2c-2.2,0.2-7.6,0.7-9.8,0.9
			C384.1,78.2,377.9,78.8,372.6,79.3z"/>
		<g>
			<g>
				<g>
					<path class="st0" d="M401.4,76.7c0,0.5-6.6,1.1-14.7,1.9c-8.1,0.8-14.7,1.4-14.8,0.9c-0.1-0.4,6.5-1.8,14.6-2.5
						C394.7,76.2,401.4,76.3,401.4,76.7z"/>
				</g>
			</g>
		</g>
		<g>
			<g>
				<g>
					<path class="st0" d="M420.8,78.5c0.1,0,0.2,0.4,0.1,1.2s-0.6,1.8-1.5,2.8s-2.2,2-3.8,2.7c-1.6,0.7-3.6,1.3-5.6,1.2
						c-2.1,0-4.1-0.7-5.6-1.7s-2.5-2.4-3.1-3.6c-0.6-1.2-0.7-2.3-0.7-3.1s0.2-1.1,0.3-1.1c0.3,0,0.2,1.6,1.5,3.7
						c0.6,1,1.6,2.1,2.9,2.9c1.3,0.8,3,1.3,4.8,1.4c3.6,0.1,6.9-1.6,8.6-3.1C420.4,80.2,420.5,78.5,420.8,78.5z"/>
				</g>
			</g>
		</g>
		<g>
			<g>
				<g>
					<path class="st0" d="M448,80.2c0,0.4-6.3,0.6-14.1,0.4c-7.8-0.2-14-0.8-14-1.2s6.3-0.6,14.1-0.4C441.8,79.2,448,79.7,448,80.2z
						"/>
				</g>
			</g>
		</g>
		<g>
			<g>
				<path class="st1" d="M369.3,136.1"/>
			</g>
		</g>
		<g>
			<g>
				<g>
					<path class="st0" d="M369.3,201.8c-0.1,0-0.2-0.3-0.4-1c-0.2-0.6-0.5-1.6-0.8-2.9c-0.6-2.5-1-6.3-0.9-10.9s0.9-10.1,1.8-16
						c0.9-6,1.7-12.5,1.4-19.5c-0.1-6.9-0.8-13.6-1.3-19.6s-0.9-11.5-0.9-16.1s0.4-8.3,0.7-10.9c0.4-2.5,0.8-3.9,0.9-3.9
						s0,1.4-0.2,4c-0.1,2.5-0.3,6.2-0.2,10.8c0.1,4.6,0.6,10,1.2,16s1.3,12.7,1.5,19.7c0.1,1.8,0,3.5,0,5.2
						c-0.1,1.7-0.1,3.4-0.3,5.1c-0.3,3.3-0.8,6.5-1.2,9.5c-1,6-1.8,11.3-2.1,15.9C367.7,196.2,369.6,201.7,369.3,201.8z"/>
				</g>
			</g>
		</g>
		<g>
			<g>
				<g>
					<path class="st0" d="M448.9,194.6c-0.1,0-0.1-1.4-0.2-3.8s-0.3-5.9-0.8-10.2c-0.5-4.3-1.3-9.4-2.2-15.1
						c-0.9-5.7-1.8-12-1.9-18.7s1-13.1,1.9-18.7c1-5.7,1.8-10.8,2.5-15.1s1.4-7.8,1.9-10.1c0.5-2.4,0.8-3.7,0.9-3.7s0,1.4-0.3,3.8
						c-0.3,2.4-0.7,5.9-1.3,10.2c-0.6,4.3-1.4,9.4-2.2,15.1c-0.8,5.7-1.8,11.9-1.8,18.5c0.1,6.6,0.9,12.8,1.7,18.5
						c0.8,5.7,1.5,10.8,1.9,15.2c0.4,4.4,0.4,7.9,0.3,10.4C449.2,193.2,449,194.6,448.9,194.6z"/>
				</g>
			</g>
		</g>
		<g>
			<g>
				<g>
					<path class="st0" d="M448,194.7c0.1,0.1-0.8,0.9-2.4,2.3c-0.8,0.7-1.9,1.4-3.1,2.3c-0.6,0.5-1.3,0.8-2.1,1.3
						c-0.7,0.4-1.5,1-2.4,1.4c-3.3,1.9-7.6,3.6-12.4,5.1c-4.9,1.4-10.3,2.4-16.2,2.9c-5.8,0.5-11.4,0.3-16.4-0.1
						c-5-0.5-9.5-1.2-13.2-2.2s-6.5-2.3-8.4-3.5c-1.8-1.1-2.7-1.9-2.6-2c0.1-0.3,4,2.7,11.3,4.4c3.6,0.9,8.1,1.4,13.1,1.8
						s10.4,0.4,16.2,0c5.7-0.5,11.1-1.4,15.9-2.7c4.8-1.3,9-2.9,12.3-4.6C444.3,197.6,447.8,194.4,448,194.7z"/>
				</g>
			</g>
		</g>
	</g>
	<g id="sign">
		<path class="st2" d="M373.6,95.1c-0.3,4.3-0.4,8.8-0.3,13.6c0.3,13.1,2.3,24.6,4.7,34.2c3.2,0.8,7.9,1.8,13.7,2.5
			c7.7,0.9,13.4,0.7,24.3,0.2c11.2-0.5,20.5-1,27.3-1.3c1.1-8.7,1.9-14.9,2.2-17.6c1.9-14.7,2.7-20.6-0.6-26.9
			c-1.4-2.7-3.1-4.6-4.3-5.7c-2-0.4-5.2-0.8-9.1-1.1c-5.3-0.3-9.3-0.1-11.2,0.1c-13.7,0.9-15.4-0.3-31.5,0.7
			C385.1,94,379.9,94.4,373.6,95.1z"/>
		<g>
			<g>
				<g>
					<path class="st0" d="M434.6,143.8c0,0.1-1.4,0.4-4.1,0.9c-2.6,0.5-6.5,1-11.2,1.4c-9.5,0.9-22.8,1.1-37.3-0.7
						c-0.9-0.1-1.9-0.2-2.8-0.6c-1-0.4-1.9-1.2-2.4-2.2s-0.5-2-0.6-2.8c-0.1-0.9-0.1-1.7-0.2-2.6c-0.2-3.4-0.5-6.7-0.7-9.9
						c-0.4-6.3-0.8-11.9-1.1-16.7c-0.3-4.8-0.5-8.6-0.6-11.3s-0.1-4.1,0-4.1s0.3,1.5,0.6,4.1s0.7,6.5,1.1,11.2s0.9,10.4,1.4,16.7
						c0.3,3.1,0.5,6.4,0.8,9.8c0.1,0.9,0.1,1.7,0.2,2.6c0.1,0.8,0.2,1.6,0.5,2.3c0.5,1.3,2.2,1.7,3.9,1.8c14.4,1.8,27.5,1.8,37,1.2
						c4.7-0.3,8.6-0.6,11.2-0.9C433.1,143.8,434.5,143.7,434.6,143.8z"/>
				</g>
			</g>
		</g>
		<g>
			<g>
				<g>
					<path class="st0" d="M443.3,144.3c-0.1,0,0-1.7,0.1-4.6c0.2-3,0.4-7.3,0.7-12.6c0.2-5.3,0.4-11.6,0.4-18.6c0-1.7,0-3.6,0-5.4
						c-0.1-1.8-0.3-3.6-1-5.2c-0.4-0.8-0.9-1.5-1.5-2c-0.6-0.6-1.4-1-2.3-1.3c-1.7-0.6-3.7-0.8-5.7-0.8c-16.2,0-30.9,0.2-41.5,0.3
						c-5.3,0-9.6,0.1-12.6,0.1s-4.6,0-4.6-0.2c0-0.1,1.6-0.3,4.6-0.5s7.3-0.4,12.6-0.6c10.6-0.4,25.3-0.8,41.6-0.8
						c2.1,0,4.2,0.2,6.2,0.9c1,0.4,2,0.9,2.8,1.6c0.8,0.7,1.4,1.6,1.9,2.6c0.9,1.9,1.1,3.9,1.1,5.8c0,1.9,0,3.7,0,5.4
						c-0.1,7-0.4,13.4-0.8,18.7s-0.8,9.6-1.2,12.5C443.7,142.7,443.4,144.3,443.3,144.3z"/>
				</g>
			</g>
		</g>
		<g>
			<g>
				<g>
					<path class="st0" d="M421.1,101.7c0.4,0.3-5.9,8-13.3,17.7c-7.5,9.6-13.3,17.6-13.7,17.3c-0.2-0.1,1.1-2.3,3.3-5.6
						c2.2-3.3,5.4-7.9,9.2-12.7c3.7-4.8,7.3-9.1,10-12.1C419.2,103.3,421,101.5,421.1,101.7z"/>
				</g>
			</g>
		</g>
		<g>
			<g>
				<g>
					<path class="st0" d="M402.8,105.1c0.2,0,0.3,0.3,0.6,0.3c0.1,0,0.4,0.1,0.5,0c0.1,0,0.2-0.1,0.3-0.2c0-0.1,0-0.1,0-0.2
						c0-0.1,0-0.1-0.1-0.2c-0.1-0.1-0.2-0.2-0.3-0.3c-0.1,0-0.1-0.1-0.3-0.1c-0.2,0-0.5,0.2-0.7,0.4c-0.4,0.4-0.4,0.8-0.7,0.9
						c-0.1,0-0.3-0.1-0.4-0.3s-0.2-0.7,0-1.1c0.2-0.5,0.5-1,1.3-1.3c0.4-0.1,0.9-0.1,1.3,0.1c0.4,0.2,0.7,0.5,1,0.8
						c0.2,0.3,0.4,0.7,0.4,1.1c0,0.4-0.1,0.8-0.4,1.1c-0.4,0.5-1.1,0.7-1.6,0.6c-0.5-0.1-0.8-0.4-1.1-0.6c-0.2-0.3-0.2-0.6-0.2-0.8
						C402.6,105.1,402.7,105.1,402.8,105.1z"/>
				</g>
			</g>
		</g>
		<g>
			<g>
				<g>
					<path class="st0" d="M422.2,131.6c0.2-0.1,0.6,0,1.1,0c0.2,0,0.5-0.1,0.6-0.3c0.1-0.1,0.2-0.3,0.1-0.6
						c-0.1-0.2-0.1-0.3-0.2-0.4c-0.1-0.1-0.2-0.1-0.3,0c-0.1,0.1-0.3,0.2-0.4,0.3c-0.2,0.2-0.2,0.5-0.4,0.6
						c-0.1,0.1-0.6-0.1-0.5-0.8c0-0.3,0.2-0.7,0.5-1c0.3-0.4,0.9-0.6,1.6-0.5s1.3,0.9,1.4,1.5c0.1,0.4,0.1,0.8-0.1,1.2
						c-0.1,0.4-0.4,0.7-0.7,0.9c-0.6,0.4-1.3,0.3-1.7,0.2C422.2,132.4,422.1,131.7,422.2,131.6z"/>
				</g>
			</g>
		</g>
	</g>
	<g id="Layer_15">
		<path class="st2" d="M372.6,79.3c-2.1,1.1-5,2.8-8,5.6c-4.3,3.9-6.4,7.9-8.2,11.1c-5.8,10.8-9.9,19.5-11.8,23.5
			c-2.8,5.9-5.8,12.1-9,20.8c-0.9,2.5-3,8.2-2.3,15.3c0.5,5.3,2.1,6.9,2.8,7.5c3.3,2.7,8.3,1.3,10,0.9c2-0.5,4.7-1.7,10.6-7.3
			c3.3-3.1,8.8-8.8,15.2-18.1c1.9-2.8,3.4-5.2,4.4-6.8c0.7-1.2,1.5-2.7,2.1-4.3c1.2-3,1.6-5.7,1.9-7.8c0.9,0.7,2.8,2.1,5.7,2.6
			c2,0.4,4.4,0.9,6-0.3c2.9-2.2,2-9.1-0.9-13.5c-2.2-3.3-5.4-4.7-6.9-5.4c-2-0.9-4.1-1.8-6.7-1.3c-3.2,0.7-5.1,3.1-5.7,3.9
			c-0.4-3.5-0.6-7.4-0.5-11.6C371.4,88.6,371.9,83.6,372.6,79.3z"/>
		<g>
			<g>
				<g>
					<path class="st0" d="M375,133.4c0.1,0-0.1,0.5-0.6,1.4c-0.4,0.9-1.1,2.2-2,3.9c-1.9,3.3-4.9,7.9-9.5,13c-2.3,2.5-5,5.1-8.1,7.7
						c-1.5,1.3-3.2,2.6-5,3.7s-4,2.1-6.3,2.5c-2.4,0.4-4.9,0-7.1-1.4c-1.1-0.7-2.1-1.6-2.7-2.8c-0.7-1.2-1-2.5-1.1-3.8
						c-0.1-2.6,0.5-5.1,1-7.5c0.2-1.2,0.6-2.5,0.8-3.7c0.3-1.2,0.6-2.5,1-3.7c2.8-10,6.6-19.2,10.4-27.3c1.9-4.1,3.8-7.9,5.7-11.4
						c1.9-3.5,3.6-6.8,5.4-9.7s3.6-5.4,5.4-7.4s3.6-3.6,5.1-4.7c0.8-0.6,1.5-1,2.1-1.4c0.7-0.3,1.2-0.7,1.6-0.9
						c0.9-0.4,1.4-0.6,1.4-0.5c0.1,0.2-1.9,0.9-4.8,3.3c-1.5,1.2-3.1,2.8-4.8,4.8c-1.7,2.1-3.4,4.6-5.1,7.4
						c-1.7,2.9-3.4,6.2-5.2,9.7c-1.8,3.5-3.7,7.3-5.5,11.4c-3.7,8.1-7.5,17.2-10.2,27.1c-0.3,1.2-0.6,2.5-1,3.7
						c-0.3,1.2-0.6,2.5-0.8,3.7c-0.5,2.4-1.1,4.9-1,7.1c0.1,1.1,0.3,2.2,0.8,3.1s1.3,1.7,2.2,2.2c1.8,1.1,4.1,1.5,6.1,1.2
						c2.1-0.3,4-1.2,5.8-2.2c1.8-1.1,3.4-2.3,4.9-3.5c3.1-2.5,5.7-5,8.1-7.4c4.6-4.9,7.8-9.4,9.8-12.5
						C373.8,135.2,374.8,133.3,375,133.4z"/>
				</g>
			</g>
		</g>
		<g>
			<g>
				<g>
					<path class="st0" d="M365.2,123.6c0.2,0.4-4.1,3.6-9.6,7.3c-5.6,3.6-10.3,6.3-10.5,5.9c-0.2-0.4,4.1-3.6,9.6-7.3
						C360.3,125.8,365,123.2,365.2,123.6z"/>
				</g>
			</g>
		</g>
		<g>
			<g>
				<g>
					<path class="st0" d="M375.5,135.2c-0.2,0-0.3-1-0.8-2.6c-0.5-1.5-1.4-3.5-3.1-5.1s-3.8-2.4-5.3-2.8c-1.5-0.4-2.6-0.4-2.6-0.6
						c0-0.2,1-0.6,2.8-0.5c1.7,0.1,4.3,0.8,6.3,2.7s3,4.3,3.2,6.1C376.1,134.2,375.7,135.2,375.5,135.2z"/>
				</g>
			</g>
		</g>
		<g>
			<g>
				<g>
					<path class="st0" d="M372,104.6c0,0.2-1.4,0.4-3.8,0.6c-0.6,0.1-1.3,0-1.7,0.2c-0.3,0.1-0.6,0.6-0.7,1.3
						c-0.4,1.4-0.5,3-0.5,4.8c0,1.7,0.2,3.4,0.2,5c0.1,1.6,0,3-0.1,4.2c-0.3,2.4-1.1,3.8-1.3,3.7c-0.2-0.1,0.2-1.5,0.1-3.8
						c0-1.1-0.1-2.5-0.2-4s-0.3-3.2-0.3-5.1c0-1.8,0.2-3.6,0.6-5.2c0.1-0.4,0.3-0.8,0.5-1.2s0.7-0.8,1.2-0.9
						c0.5-0.2,0.9-0.1,1.2-0.1c0.3,0,0.6,0,0.9,0.1C370.5,104.1,372,104.3,372,104.6z"/>
				</g>
			</g>
		</g>
		<g>
			<g>
				<g>
					<path class="st0" d="M392,122c0.1,0.1-0.1,0.4-0.7,0.8c-0.5,0.4-1.5,0.7-2.7,0.7s-2.6-0.3-3.9-0.8c-0.7-0.2-1.4-0.5-2.1-0.7
						c-0.4-0.1-0.7-0.2-1.1-0.2c-0.3-0.1-0.8-0.1-0.8-0.1h-0.1v0.2c0,0.1-0.1,0.6-0.1,1c-0.1,0.8-0.3,1.6-0.5,2.3
						c-0.4,1.4-0.9,2.7-1.4,3.7s-1.1,1.9-1.8,2.1c-0.3,0.1-0.7,0.1-0.8,0.1c-0.2-0.1-0.2-0.2-0.2-0.2c0-0.1,0.4-0.1,0.8-0.4
						c0.4-0.3,0.8-1,1.1-2c0.3-1,0.7-2.2,1-3.6c0.1-0.7,0.3-1.4,0.4-2.2c0.1-0.4,0.1-0.7,0.2-1.4c0-0.3,0.1-0.7,0.1-1
						c0.3-0.1,0.7-0.1,1-0.1c0.8,0,1.2,0,1.6,0.1s0.9,0.2,1.2,0.3c0.8,0.2,1.5,0.5,2.2,0.8c1.3,0.6,2.5,0.9,3.5,1.1
						C390.8,122.6,391.9,121.8,392,122z"/>
				</g>
			</g>
		</g>
		<g>
			<g>
				<g>
					
						<ellipse transform="matrix(0.485 -0.8745 0.8745 0.485 98.5904 379.1438)" class="st0" cx="371.2" cy="105.9" rx="1.5" ry="0.8"/>
				</g>
			</g>
		</g>
		<g>
			<g>
				<g>
					<path class="st0" d="M391.1,108.5c-0.2,0.2-1.2-0.7-3.1-1.8c-0.9-0.5-2.1-1.2-3.4-1.8s-2.8-1.4-4.2-2c-1.5-0.5-2.9-0.4-4.1,0
						c-1.2,0.5-2.2,1.3-3,2c-1.5,1.5-2,2.8-2.2,2.7c-0.2,0-0.1-1.6,1.4-3.5c0.7-0.9,1.8-2,3.3-2.6c1.5-0.7,3.5-0.8,5.2-0.2
						s3.1,1.5,4.4,2.2s2.4,1.5,3.3,2.2C390.5,107.1,391.3,108.3,391.1,108.5z"/>
				</g>
			</g>
		</g>
		<g>
			<g>
				<g>
					<path class="st0" d="M391.7,110.6c-0.2,0.1-0.7-0.4-1.6-1s-2.3-1.1-3.9-1.3s-3.2-0.1-4.3-0.1c-1.2,0-1.9,0-1.9-0.3
						c0-0.2,0.6-0.6,1.8-0.9c1.1-0.3,2.8-0.6,4.7-0.4c1.9,0.2,3.5,1.1,4.4,2C391.7,109.7,391.9,110.5,391.7,110.6z"/>
				</g>
			</g>
		</g>
		<g>
			<g>
				<g>
					<path class="st0" d="M391.1,114.5c-0.3,0.3-2.4-1.2-5.3-2c-2.9-0.9-5.4-0.6-5.5-1.1c0-0.2,0.6-0.6,1.7-0.8s2.7-0.2,4.3,0.3
						c1.6,0.5,3,1.3,3.8,2.1S391.3,114.4,391.1,114.5z"/>
				</g>
			</g>
		</g>
		<g>
			<g>
				<g>
					<path class="st0" d="M390.6,120.8c-0.4,0.2-1.7-1.5-4-2.9c-2.2-1.4-4.4-1.8-4.4-2.3c0-0.2,0.6-0.4,1.6-0.3
						c1,0.1,2.3,0.4,3.6,1.2c1.3,0.8,2.2,1.9,2.7,2.7C390.7,120.1,390.8,120.7,390.6,120.8z"/>
				</g>
			</g>
		</g>
	</g>
	<g id="hand_left">
		<path class="st2" d="M448,80.2c1.6,4.5,3.3,11,3,18.9c-0.1,3.2-0.5,6.1-1,8.6c-0.4-0.5-1-1.3-1.8-2.1c-1.5-1.5-3.1-3.1-4.4-2.7
			c-1,0.3-0.8,1.6-2.1,3.6c-1.8,2.8-3.4,2.4-5.2,5.1c-0.8,1.2-1.1,2.3-1.6,4.4c-0.7,2.7-0.2,2.8-1,6.6c-0.3,1.8-0.5,2.2-0.2,2.6
			c0.9,1.2,3.9-1,6.8,0.2c1.4,0.6,1.6,1.5,4,4.5c2.2,2.8,2.8,3.1,4.8,5.5c3,3.6,4.4,6.3,6.4,9.7c4,6.6,7.6,12.4,13.7,17
			c3.3,2.5,7.6,5.7,12,4.4c3.8-1.1,5.7-5.1,6.1-5.9c1.3-2.8,1.3-5.6,0.4-10.9c-1.3-7.7-3.2-13.5-3.6-14.8c-4-11.8-6-17.7-9.9-26.1
			c-3.2-6.9-5.4-10.6-7.3-13.4c-4.5-6.6-7.7-9.2-8.5-9.8C454.6,82.5,450.7,81,448,80.2z"/>
		<g>
			<g>
				<g>
					<path class="st0" d="M488.5,154.5c-0.3,0-1-4.8-3-12.5c-1.9-7.7-5.1-18.1-10.1-29.1c-2.5-5.5-5.1-10.6-7.7-15.1
						c-2.7-4.5-5.5-8.2-8.4-10.8c-1.4-1.3-2.8-2.4-4.1-3.2c-0.7-0.4-1.3-0.8-1.9-1.1s-1.1-0.6-1.7-0.8c-0.5-0.2-1-0.4-1.4-0.5
						s-0.7-0.2-1-0.3c-0.6-0.2-0.8-0.3-0.8-0.4c0-0.1,0.3,0,0.9,0c0.3,0,0.7,0.1,1.1,0.2c0.4,0.1,0.9,0.2,1.4,0.4s1.1,0.4,1.8,0.6
						c0.6,0.3,1.3,0.6,2,1c1.4,0.8,2.9,1.8,4.5,3.1c3.1,2.6,6.1,6.4,8.9,10.9s5.4,9.7,7.9,15.2c5,11.1,8.1,21.7,9.7,29.5
						c0.9,3.9,1.3,7.1,1.6,9.3C488.5,153.2,488.6,154.4,488.5,154.5z"/>
				</g>
			</g>
		</g>
		<g>
			<g>
				<g>
					<path class="st0" d="M488.2,153.1c0.1,0,0.2,0.9,0.3,2.6c0,0.8,0,1.9-0.2,3.1s-0.5,2.6-1.2,4s-1.8,2.8-3.6,3.8
						c-1.7,0.9-3.9,1-5.9,0.6c-4.1-0.8-8-3.3-11.3-6.6c-3.2-3.3-5.7-7-8-10.2c-2.2-3.2-4.2-6.2-5.8-8.7c-3.2-5-5-8.3-4.8-8.4
						c0.2-0.1,2.3,2.9,5.7,7.8c1.7,2.4,3.8,5.3,6.1,8.5c2.3,3.2,4.8,6.7,7.9,9.9c3.1,3.2,6.7,5.5,10.4,6.3c1.8,0.4,3.6,0.4,5-0.3
						c1.4-0.7,2.5-1.9,3.2-3.1s1.1-2.5,1.3-3.6s0.3-2.1,0.4-3C488,154,488.1,153.1,488.2,153.1z"/>
				</g>
			</g>
		</g>
		<g>
			<g>
				<g>
					<path class="st0" d="M482.2,143.7c-0.4,0.2-3.2-5.5-8.7-10.7c-5.5-5.3-11.3-7.8-11.1-8.3c0.1-0.2,1.6,0.2,4,1.3
						c2.3,1.1,5.4,3.1,8.2,5.8c2.8,2.8,4.9,5.7,6.1,8C482,142.1,482.4,143.6,482.2,143.7z"/>
				</g>
			</g>
		</g>
		<g>
			<g>
				<g>
					<path class="st0" d="M451.6,111c-0.1,0-0.2-0.4,0-1.1c0.2-0.7,0.6-1.7,1.4-2.7c0.2-0.2,0.4-0.5,0.8-0.7
						c0.1-0.1,0.4-0.3,0.7-0.4c0.3-0.1,0.6-0.1,0.8,0c0.3,0.1,0.6,0.2,0.8,0.4c0.2,0.2,0.4,0.4,0.5,0.5c0.3,0.4,0.4,0.7,0.7,1.1
						c0.8,1.4,1.7,3,2.5,4.6c3.3,6.7,4.7,12.7,4.2,12.8c-0.4,0.1-2.5-5.5-5.7-12.1c-0.8-1.6-1.6-3.2-2.3-4.6c-0.2-0.3-0.4-0.7-0.5-1
						c-0.1-0.1-0.2-0.2-0.2-0.3c-0.1-0.1-0.1-0.1-0.2-0.1s-0.1,0-0.2,0s-0.1,0-0.2,0.1c-0.2,0.1-0.5,0.3-0.7,0.5
						C452.2,109.5,451.9,111.1,451.6,111z"/>
				</g>
			</g>
		</g>
		<g>
			<g>
				<g>
					<path class="st0" d="M436.5,111.7c-0.2-0.2,0.7-1.2,2.1-2.9c0.7-0.8,1.6-1.8,2.6-2.8c0.5-0.5,1-1.1,1.6-1.6
						c0.3-0.3,0.6-0.6,0.8-0.8c0.1-0.1,0.3-0.3,0.5-0.5s0.6-0.4,1-0.4s0.7,0.1,1,0.2c0.3,0.1,0.5,0.3,0.6,0.4c0.3,0.3,0.6,0.5,1,0.8
						c0.6,0.5,1.2,1.1,1.6,1.7c1,1.1,1.7,2.3,2.2,3.2c1,2,1.3,3.4,1.1,3.4c-0.2,0.1-0.8-1.1-2.1-2.8c-0.6-0.9-1.4-1.8-2.4-2.8
						c-0.5-0.5-1-1-1.6-1.5c-0.3-0.2-0.6-0.5-0.9-0.7c-0.2-0.1-0.3-0.2-0.4-0.3c-0.1,0-0.1,0-0.2,0s-0.1,0-0.2,0.1s-0.2,0.2-0.4,0.3
						c-0.3,0.3-0.6,0.6-0.9,0.8c-0.6,0.5-1.1,1-1.6,1.5c-1.1,1-2,1.8-2.8,2.5C437.8,111,436.7,111.8,436.5,111.7z"/>
				</g>
			</g>
		</g>
		<g>
			<g>
				<g>
					<path class="st0" d="M449.8,132c0.1,0.1-0.1,0.4-0.6,0.6c-0.5,0.2-1.4,0.2-2.3-0.2c-0.9-0.3-1.8-1-2.7-1.8
						c-0.9-0.8-1.8-1.7-2.6-2.8c-0.4-0.5-0.8-1.2-1.1-1.5c-0.2-0.2-0.3-0.3-0.4-0.3c-0.1-0.1-0.4-0.1-0.6-0.1c-1.1,0-2.2-0.1-3-0.1
						c-1.7-0.1-2.8-0.3-2.8-0.6c0-0.2,1.1-0.4,2.8-0.6c0.9-0.1,1.9-0.2,3-0.2c0.3,0,0.7,0,1.1,0.1s0.8,0.4,1.1,0.7
						c0.5,0.6,0.8,1.1,1.2,1.6c0.8,1,1.6,1.9,2.4,2.7s1.5,1.4,2.1,1.8c0.7,0.4,1.2,0.6,1.6,0.6C449.4,132,449.7,131.9,449.8,132z"/>
				</g>
			</g>
		</g>
		<g>
			<g>
				<g>
					<path class="st0" d="M444.9,118.8c0.1,0.4-2.8,1.6-6.6,2.7c-0.9,0.3-1.8,0.5-2.4,0.8c-0.7,0.3-1.1,0.7-1.4,1.2
						c-0.6,0.9-0.5,1.7-0.7,1.7c-0.1,0-0.3-0.1-0.4-0.5s-0.2-1,0.1-1.8c0.3-0.7,0.9-1.5,1.7-2c0.8-0.5,1.8-0.8,2.7-1.1
						C441.6,118.9,444.8,118.4,444.9,118.8z"/>
				</g>
			</g>
		</g>
		<g>
			<g>
				<g>
					<path class="st0" d="M442.6,114.1c0,0.2-0.7,0.5-1.7,1s-2.3,1.3-3.5,2.4c-1.2,1.2-2,2.5-2.5,3.4c-0.5,1-0.8,1.7-1,1.7
						s-0.4-0.8-0.1-2s1.1-2.9,2.4-4.2c1.4-1.4,3-2.1,4.3-2.4C441.8,113.8,442.6,113.9,442.6,114.1z"/>
				</g>
			</g>
		</g>
		<g>
			<g>
				<g>
					<path class="st0" d="M442.3,110.4c0,0.2-0.7,0.5-1.7,0.9c-1,0.5-2.3,1.3-3.4,2.5s-1.8,2.6-2.1,3.6c-0.4,1-0.5,1.8-0.7,1.8
						s-0.5-0.7-0.4-2s0.7-3,2-4.5s3-2.3,4.2-2.5C441.5,110,442.3,110.2,442.3,110.4z"/>
				</g>
			</g>
		</g>
		<g>
			<g>
				<g>
					<path class="st0" d="M450.9,135.4c-0.1-0.2,0.8-0.7,2.1-1.7c1.3-1,2.9-2.4,4.4-4.3c0.8-0.9,1.5-1.8,2.2-2.7
						c0.6-0.8,1.3-1.6,1.7-2.2c0.4-0.6,0.7-1.1,0.8-1.5c0.1-0.4,0.1-0.7,0.2-0.7s0.3,0.2,0.5,0.7c0.1,0.5,0,1.3-0.4,2.1
						s-0.9,1.6-1.5,2.5s-1.3,1.9-2.1,2.9c-1.6,2-3.5,3.5-5.1,4.2C452,135.4,451,135.5,450.9,135.4z"/>
				</g>
			</g>
		</g>
	</g>
</g>
</svg>
